<?xml version="1.0" encoding="utf-8"?>
<!-- Generator: Adobe Illustrator 19.2.1, SVG Export Plug-In . SVG Version: 6.00 Build 0)  -->
<svg version="1.1" id="B4i" xmlns="http://www.w3.org/2000/svg" xmlns:xlink="http://www.w3.org/1999/xlink" x="0px" y="0px"
	 viewBox="0 0 504.1 111.6" style="enable-background:new 0 0 504.1 111.6;" xml:space="preserve">
<style type="text/css">
	.st0{fill:#0046AD;}
	.st1{fill:#00A599;}
</style>
<g id="text">
</g>
<g>
	<g>
		<path class="st0" d="M199.4,39.7h13c3.3,0,5.9,0.9,7.6,2.6c1.3,1.3,1.9,2.9,1.9,4.8v0.1c0,3.5-2,5.3-4.1,6.5
			c3.4,1.2,5.7,3.1,5.7,7v0.1c0,5.2-4.3,7.9-10.7,7.9h-13.4V39.7z M211.3,51.9c3.3,0,5.5-1.3,5.5-3.9v-0.1c0-2.3-1.8-3.7-5.1-3.7
			h-7.3v7.7H211.3z M212.8,64.2c3.5,0,5.6-1.4,5.6-4v-0.1c0-2.4-1.9-3.9-6-3.9h-8.1v7.9L212.8,64.2L212.8,64.2z"/>
		<path class="st0" d="M228,54.3L228,54.3c0-8.2,6.3-15.1,15.2-15.1s15.1,6.7,15.1,14.9v0.1c0,8.1-6.3,15-15.2,15S228,62.4,228,54.3
			z M252.9,54.3L252.9,54.3c0-5.7-4.1-10.4-9.8-10.4s-9.8,4.6-9.8,10.2v0.1c0,5.6,4.1,10.3,9.8,10.3
			C248.9,64.5,252.9,59.9,252.9,54.3z"/>
		<path class="st0" d="M263.2,54.3L263.2,54.3c0-8.3,6.2-15.1,14.9-15.1c5.3,0,8.6,1.9,11.3,4.5l-3.3,3.8c-2.3-2.2-4.8-3.6-8.1-3.6
			c-5.5,0-9.6,4.5-9.6,10.2v0.1c0,5.7,4,10.3,9.6,10.3c3.6,0,5.8-1.4,8.3-3.8l3.3,3.3c-3,3.1-6.3,5.1-11.7,5.1
			C269.5,69.2,263.2,62.6,263.2,54.3z"/>
		<path class="st0" d="M292.9,54.3L292.9,54.3c0-8.3,6.2-15.1,14.9-15.1c5.3,0,8.6,1.9,11.3,4.5l-3.3,3.8c-2.3-2.2-4.8-3.6-8.1-3.6
			c-5.5,0-9.6,4.5-9.6,10.2v0.1c0,5.7,4,10.3,9.6,10.3c3.6,0,5.8-1.4,8.3-3.8l3.3,3.3c-3,3.1-6.3,5.1-11.7,5.1
			C299.2,69.2,292.9,62.6,292.9,54.3z"/>
		<path class="st0" d="M322.6,54.3L322.6,54.3c0-8.2,6.3-15.1,15.2-15.1c8.9,0,15.1,6.7,15.1,14.9v0.1c0,8.1-6.3,15-15.2,15
			S322.6,62.4,322.6,54.3z M347.6,54.3L347.6,54.3c0-5.7-4.1-10.4-9.8-10.4s-9.8,4.6-9.8,10.2v0.1c0,5.6,4.1,10.3,9.8,10.3
			C343.6,64.5,347.6,59.9,347.6,54.3z"/>
		<path class="st0" d="M359.1,39.7h4.7l15.5,20v-20h5v28.9H380L364,48v20.6h-5L359.1,39.7L359.1,39.7z"/>
		<path class="st0" d="M392.1,39.7h5.1v28.9h-5.1V39.7z"/>
		<path class="st0" d="M417.4,39.7H439v4.6h-16.5v7.9h14.6v4.6h-14.6v11.8h-5.1V39.7z"/>
		<path class="st0" d="M443.1,54.3L443.1,54.3c0-8.2,6.3-15.1,15.2-15.1c8.9,0,15.1,6.7,15.1,14.9v0.1c0,8.1-6.3,15-15.2,15
			S443.1,62.4,443.1,54.3z M468,54.3L468,54.3c0-5.7-4.1-10.4-9.8-10.4s-9.8,4.6-9.8,10.2v0.1c0,5.6,4.1,10.3,9.8,10.3
			C464,64.5,468,59.9,468,54.3z"/>
		<path class="st0" d="M479.5,39.7h12.9c3.6,0,6.5,1.1,8.4,2.9c1.5,1.6,2.4,3.7,2.4,6.2v0.1c0,4.8-2.9,7.6-6.9,8.8l7.8,11h-6
			L491,58.6h-6.4v10.1h-5.1V39.7z M492.1,54.1c3.6,0,6-1.9,6-4.8v-0.1c0-3.1-2.2-4.8-6-4.8h-7.4v9.7
			C484.7,54.1,492.1,54.1,492.1,54.1z"/>
		<path class="st0" d="M199.5,80.9h6.4v29.3h-6.4V80.9z"/>
		<path class="st0" d="M216.8,80.9h5.9l13.7,18v-18h6.4v29.3h-5.5l-14.2-18.6v18.6h-6.4V80.9H216.8z"/>
		<path class="st0" d="M253.4,80.9h5.9l13.7,18v-18h6.4v29.3h-5.5l-14.2-18.6v18.6h-6.4V80.9H253.4z"/>
		<path class="st0" d="M288.6,95.6L288.6,95.6c0-8.4,6.6-15.2,15.6-15.2s15.5,6.7,15.5,15.1v0.1c0,8.3-6.6,15.2-15.6,15.2
			S288.6,103.9,288.6,95.6z M313.1,95.6L313.1,95.6c0-5.1-3.7-9.3-8.9-9.3s-8.8,4.1-8.8,9.1v0.1c0,5,3.7,9.2,8.9,9.2
			C309.5,104.7,313.1,100.6,313.1,95.6z"/>
		<path class="st0" d="M324.7,80.9h7.1l7.7,20.6l7.7-20.6h7l-11.8,29.5h-5.7L324.7,80.9z"/>
		<path class="st0" d="M367.9,80.7h5.9l12.6,29.5h-6.7l-2.7-6.6h-12.4l-2.7,6.6h-6.6L367.9,80.7z M374.7,97.9l-3.9-9.5l-3.9,9.5
			H374.7z"/>
		<path class="st0" d="M397.5,86.8h-8.9v-5.9h24.3v5.9H404v23.4h-6.4V86.8H397.5z"/>
		<path class="st0" d="M421.7,80.9h6.4v29.3h-6.4V80.9z"/>
		<path class="st0" d="M437.7,95.6L437.7,95.6c0-8.4,6.6-15.2,15.6-15.2s15.5,6.7,15.5,15.1v0.1c0,8.3-6.6,15.2-15.6,15.2
			S437.7,103.9,437.7,95.6z M462.1,95.6L462.1,95.6c0-5.1-3.7-9.3-8.9-9.3s-8.8,4.1-8.8,9.1v0.1c0,5,3.7,9.2,8.9,9.2
			C458.5,104.7,462.1,100.6,462.1,95.6z"/>
		<path class="st0" d="M478.1,80.9h5.9l13.7,18v-18h6.4v29.3h-5.5l-14.2-18.6v18.6H478V80.9H478.1z"/>
	</g>
	<g>
		<g>
			<g>
				<path class="st1" d="M141.7,59c-4.3,0-6.9,2.6-6.9,6.9v16.6h-29.7l18.3-32c2.3-4.2,1.5-7.5-2.5-9.7c-4-2.3-7.2-1.3-9.6,2.9
					L87.5,85.2c-0.8,1.4-1.1,2.9-1.1,4.1c0,4.3,2.6,6.9,6.9,6.9h41.4v7.8c0,2.1,0.6,3.8,1.8,5s2.9,1.8,5.1,1.8h0.1
					c4.3,0,6.9-2.6,6.9-6.9v-38C148.6,61.6,146,59,141.7,59z"/>
				<circle class="st1" cx="163.4" cy="15.6" r="15.6"/>
			</g>
			<g>
				<path class="st0" d="M163.3,38.9c-4.8,0-7.1,2.4-7.1,7.1v57.7c0,4.8,2.4,7.1,7.1,7.1c4.8,0,7.1-2.4,7.1-7.3l0.1-57.5
					C170.5,41.3,168.1,38.9,163.3,38.9z"/>
				<path class="st0" d="M82.1,84.6c0,8.6-3.7,15.3-11,20c-6.4,4.2-14.4,6.3-23.9,6.3h-47V110h12.9V15.2H0v-0.9h41.6
					c9.1,0,16.7,1.8,22.8,5.3c7.2,4.1,10.8,10.2,10.8,18.3c0,6.8-2.7,12.2-8.2,16.3c-3.8,2.8-7.8,4.5-12.1,5c5,0,10.3,2,16,6
					C78.4,70.3,82.1,76.8,82.1,84.6z M57.6,38.1c0-6-1.6-11.2-4.7-15.7c-3.4-4.8-7.8-7.1-13.2-7.1h-6.8v43.4h8.5
					c5,0,8.8-1.3,11.4-3.8C56,51.7,57.6,46.1,57.6,38.1z M62.1,83.2c0-6.6-1.7-12.1-5-16.4c-3.8-4.8-9.1-7.2-15.8-7.2h-8.4v50.3
					h10.7c7.9,0,13.2-2.9,15.9-8.6C61.2,97.6,62.1,91.6,62.1,83.2z"/>
			</g>
		</g>
	</g>
</g>
</svg>
