<svg version="1.1" id="Layer_1" xmlns="http://www.w3.org/2000/svg" xmlns:xlink="http://www.w3.org/1999/xlink" x="0px" y="0px" style="enable-background:new 0 0 1920 1080;" xml:space="preserve" viewBox="187.68 209.72 1329.28 654.73"> <style type="text/css"> 	.st0{fill:#120068;} 	.st1{fill:#B2BFCC;} 	.st2{fill:#FC3F1A;} </style> <g> 	<g> 		<g> 			<path class="st0" d="M540.48,644.89V250.72c0-22.64,19.99-41,44.64-41c24.65,0,44.64,18.36,44.64,41v394.15 &#9;&#9;&#9;&#9;c0,22.64-19.99,41-44.64,41C560.47,685.88,540.48,667.53,540.48,644.89z"/> 		</g> 	</g> 	<g> 		<g> 			<path class="st1" d="M228.68,522.19h434.5c22.64,0,41,19.99,41,44.64c0,24.65-18.36,44.64-41,44.64h-434.5 &#9;&#9;&#9;&#9;c-22.64,0-41-19.99-41-44.64C187.68,542.18,206.04,522.19,228.68,522.19z"/> 		</g> 	</g> 	<g> 		<g> 			<path class="st2" d="M262.08,823.43V488.81c0-22.64,19.99-41,44.64-41s44.64,18.36,44.64,41v334.64c0,22.64-19.99,41-44.64,41 &#9;&#9;&#9;&#9;C282.05,864.44,262.08,846.09,262.08,823.43z"/> 		</g> 	</g> </g> <g> 	<path class="st2" d="M816,369.56h45.44v26.4h-75.52v-132H816V369.56z"/> 	<path class="st2" d="M899.84,358.84c0,12.64,10.56,16.96,17.76,16.96c9.12,0,13.12-1.76,20-9.12l20.48,10.24 &#9;&#9;c-9.28,15.52-24.32,21.44-42.56,21.44c-24.8,0-45.12-19.52-45.12-43.36c0-24,20.32-43.52,45.12-43.52c24.96,0,44,14.72,44,43.52 &#9;&#9;c0,1.12,0,2.88-0.16,3.84H899.84z M931.84,343.16c-1.28-8.64-7.2-13.28-15.52-13.28c-9.76,0-15.2,5.76-15.68,13.28H931.84z"/> 	<path class="st2" d="M1006.88,311.48c11.04,0,20.16,3.68,26.88,10.24v-7.84h28.32v82.08h-28v-9.28h-0.32 &#9;&#9;c-6.08,6.72-15.68,11.68-26.88,11.68c-24,0-40.8-19.36-40.8-43.36S982.88,311.48,1006.88,311.48z M1015.36,374.2 &#9;&#9;c11.04,0,19.04-8,19.04-19.2c0-11.36-8.48-19.36-19.04-19.36c-10.72,0-19.2,8-19.2,19.36C996.16,366.2,1003.84,374.2,1015.36,374.2 &#9;&#9;z"/> 	<path class="st2" d="M1081.28,313.88h28.32v11.84h0.32c0,0,8.96-14.24,25.12-14.24c10.56,0,17.92,5.12,17.92,5.12l-11.84,24 &#9;&#9;c0,0-5.28-4.48-14.72-4.48c-14.72,0-16.8,14.56-16.8,16.64v43.2h-28.32V313.88z"/> 	<path class="st2" d="M1160.96,313.88h28.32v8.64h0.32c6.4-6.4,14.56-11.04,23.52-11.04c15.04,0,36,7.52,36,30.4v54.08h-28.32v-46.4 &#9;&#9;c0-8.16-5.6-16-14.72-16c-8.48,0-16.8,7.84-16.8,16v46.4h-28.32V313.88z"/> 	<path class="st1" d="M816,587.96h-30.08v-132H816l52.48,81.92h0.32v-81.92h30.08v132H868.8l-52.48-81.92H816V587.96z"/> 	<path class="st1" d="M941.6,550.84c0,12.64,10.56,16.96,17.76,16.96c9.12,0,13.12-1.76,20-9.12l20.48,10.24 &#9;&#9;c-9.28,15.52-24.32,21.44-42.56,21.44c-24.8,0-45.12-19.52-45.12-43.36c0-24,20.32-43.52,45.12-43.52c24.96,0,44,14.72,44,43.52 &#9;&#9;c0,1.12,0,2.88-0.16,3.84H941.6z M973.6,535.16c-1.28-8.64-7.2-13.28-15.52-13.28c-9.76,0-15.2,5.76-15.68,13.28H973.6z"/> 	<path class="st1" d="M1018.56,475.32h28.32v30.56h17.28v21.6h-17.28v26.08c0,7.68,1.92,11.36,6.4,11.36c3.68,0,7.04-2.56,7.04-2.56 &#9;&#9;l7.04,22.88c0,0-9.12,5.12-20.8,5.12c-22.56,0-28-16.8-28-31.36v-31.52h-11.84v-21.6h11.84V475.32z"/> 	<path class="st1" d="M1108.16,587.96l-44-82.08h32.64l20,44.32l19.68-44.32H1156l19.68,44.32l20-44.32h32.64l-44,82.08h-19.2 &#9;&#9;l-18.88-42.4l-18.88,42.4H1108.16z"/> 	<path class="st1" d="M1277.76,503.48c27.2,0,48.96,17.92,48.96,43.52c0,25.28-20.64,43.36-48.96,43.36 &#9;&#9;c-29.6,0-49.44-18.08-49.44-43.36C1228.32,521.4,1250.08,503.48,1277.76,503.48z M1277.6,566.2c11.04,0,19.04-8,19.04-19.2 &#9;&#9;c0-11.36-8.48-19.36-19.04-19.36c-10.72,0-19.2,8-19.2,19.36C1258.4,558.2,1266.08,566.2,1277.6,566.2z"/> 	<path class="st1" d="M1339.68,505.88H1368v11.84h0.32c0,0,8.96-14.24,25.12-14.24c10.56,0,17.92,5.12,17.92,5.12l-11.84,24 &#9;&#9;c0,0-5.28-4.48-14.72-4.48c-14.72,0-16.8,14.56-16.8,16.64v43.2h-28.32V505.88z"/> 	<path class="st1" d="M1474.08,545.08l42.88,42.88h-36.48l-32.8-32.8v32.8h-28.32v-137.6h28.32v84.16l28.64-28.64h36.8 &#9;&#9;L1474.08,545.08z"/> 	<path class="st0" d="M826.88,647.96c22.72,0,40.64,8.48,40.64,33.6c0,12.16-5.28,22.56-16.48,28.32 &#9;&#9;c16.48,2.88,28.16,12,28.16,33.28c0,21.76-15.84,36.8-43.2,36.8h-50.08v-132H826.88z M818.4,699.64c12.96,0,20-4,20-15.04 &#9;&#9;c0-9.44-6.88-13.44-20-13.44H816v28.48H818.4z M825.44,756.76c14.24,0,22.08-4.32,22.08-14.72c0-12.16-7.84-16.48-22.08-16.48H816 &#9;&#9;v31.2H825.44z"/> 	<path class="st0" d="M919.2,736.92c0,16.16,4.32,22.4,16.16,22.4c11.84,0,16.16-6.24,16.16-22.4v-39.04h28.32v45.92 &#9;&#9;c0,27.52-13.76,38.56-44.48,38.56c-30.72,0-44.48-11.04-44.48-38.56v-45.92h28.32V736.92z"/> 	<path class="st0" d="M1028.8,663.96c0,9.28-7.52,16.8-16.8,16.8s-16.8-7.52-16.8-16.8s7.52-16.8,16.8-16.8 &#9;&#9;S1028.8,654.68,1028.8,663.96z M997.44,779.96h28.32v-82.08h-28.32V779.96z"/> 	<path class="st0" d="M1045.75,642.36h28.32v137.6h-28.32V642.36z"/> 	<path class="st0" d="M1128.15,695.48c11.04,0,20.16,3.68,26.88,10.24v-63.36h28.32v137.6h-28v-9.28h-0.32 &#9;&#9;c-6.08,6.72-15.68,11.68-26.88,11.68c-24,0-40.8-19.36-40.8-43.36S1104.15,695.48,1128.15,695.48z M1136.63,758.2 &#9;&#9;c11.04,0,19.04-8,19.04-19.2c0-11.36-8.48-19.36-19.04-19.36c-10.72,0-19.2,8-19.2,19.36 &#9;&#9;C1117.43,750.2,1125.11,758.2,1136.63,758.2z"/> </g> </svg>