<?xml version="1.0" encoding="utf-8"?>
<!-- Generator: Adobe Illustrator 24.0.1, SVG Export Plug-In . SVG Version: 6.00 Build 0)  -->
<svg version="1.1" id="Livello_1" xmlns="http://www.w3.org/2000/svg" xmlns:xlink="http://www.w3.org/1999/xlink" x="0px" y="0px"
	 viewBox="0 0 3061.42 775.3" style="enable-background:new 0 0 3061.42 775.3;" xml:space="preserve">
<style type="text/css">
	.st0{fill:#FFFFFF;}
</style>
<g>
	<g>
		<g>
			<path class="st0" d="M400.39,449.84V222.45c0-13.06,11.53-23.65,25.75-23.65s25.75,10.59,25.75,23.65v227.38
				c0,13.06-11.53,23.65-25.75,23.65C411.92,473.49,400.39,462.9,400.39,449.84z"/>
		</g>
	</g>
	<g>
		<path class="st0" d="M581.88,245.53c0.2-1.96,1.96-3.73,3.73-3.73h72.55c1.96,0,3.14,1.77,2.94,3.73l-2.35,16.08
			c-0.2,1.96-1.96,3.73-3.92,3.73h-50.2l-4.51,32.16h41.57c1.76,0,3.14,1.76,2.94,3.73l-2.35,16.28c-0.39,2.16-2.16,3.73-3.92,3.73
			h-41.57l-4.9,34.32h50.4c1.96,0,2.94,1.76,2.75,3.73l-2.16,16.08c-0.2,1.96-1.96,3.73-3.92,3.73h-72.55
			c-1.96,0-3.14-1.76-2.75-3.73L581.88,245.53z"/>
		<path class="st0" d="M688.95,243.37c0.2-1.96,1.96-3.53,3.73-3.53h5.1l59.81,84.71h0.2l10.59-79.02c0.2-1.96,1.76-3.73,3.73-3.73
			h19.02c1.76,0,3.14,1.77,2.94,3.73L775.44,377.5c-0.2,1.96-1.96,3.53-3.73,3.53h-5.29l-59.61-87.26h-0.2l-10.59,81.57
			c-0.2,1.96-1.96,3.73-3.92,3.73h-18.82c-1.57,0-2.94-1.57-2.75-3.33L688.95,243.37z"/>
		<path class="st0" d="M840.33,265.33h-25.88c-1.96,0-3.14-1.77-2.94-3.73l2.35-16.08c0.2-1.96,1.96-3.73,3.73-3.73h77.85
			c1.96,0,3.14,1.77,2.94,3.73l-2.35,16.08c-0.2,1.96-1.96,3.73-3.92,3.73h-25.88l-15.49,110.01c-0.2,1.96-2.16,3.73-3.92,3.73
			H827.8c-1.76,0-3.14-1.76-2.94-3.73L840.33,265.33z"/>
		<path class="st0" d="M918.57,245.53c0.2-1.96,1.96-3.73,3.73-3.73h51.77c19.22,0,33.14,16.47,33.14,36.67
			c0,23.92-12.55,39.41-31.18,45.3l16.08,50.2c0.78,2.55-0.39,5.1-3.33,5.1h-18.63c-1.96,0-3.73-0.78-4.31-3.14l-14.31-50.59H932.9
			l-7.06,50c-0.2,1.96-1.96,3.73-3.73,3.73h-19.02c-1.96,0-3.14-1.76-2.75-3.73L918.57,245.53z M960.53,304.35
			c12.35,0,20.59-10.39,20.59-22.75c0-8.82-5.49-16.28-12.75-16.28h-26.86l-5.49,39.02h24.51V304.35z"/>
		<path class="st0" d="M1040.93,245.53c0.2-1.96,1.96-3.73,3.73-3.73h72.55c1.96,0,3.14,1.77,2.94,3.73l-2.35,16.08
			c-0.2,1.96-1.96,3.73-3.92,3.73h-50.2l-4.51,32.16h41.57c1.76,0,3.14,1.76,2.94,3.73l-2.35,16.28c-0.39,2.16-2.16,3.73-3.92,3.73
			h-41.57l-4.9,34.32h50.4c1.96,0,2.94,1.76,2.75,3.73l-2.16,16.08c-0.2,1.96-1.96,3.73-3.92,3.73h-72.55
			c-1.96,0-3.14-1.76-2.75-3.73L1040.93,245.53z"/>
		<path class="st0" d="M1147.8,245.53c0.2-1.96,1.96-3.73,3.92-3.73h41.96c19.61,0,33.92,18.63,33.92,39.22
			c0,28.63-20.79,48.24-46.08,48.24h-20l-6.47,46.08c-0.2,1.96-2.16,3.73-3.92,3.73h-18.82c-1.96,0-3.14-1.76-2.75-3.73
			L1147.8,245.53z M1183.09,305.33c9.61,0,18.82-10.39,18.82-23.14c0-9.22-5.69-16.28-13.33-16.28h-18.24l-5.49,39.41
			L1183.09,305.33L1183.09,305.33z"/>
		<path class="st0" d="M1255.45,245.53c0.2-1.96,1.96-3.73,3.73-3.73h51.77c19.22,0,33.14,16.47,33.14,36.67
			c0,23.92-12.55,39.41-31.18,45.3l16.08,50.2c0.78,2.55-0.39,5.1-3.33,5.1h-18.63c-1.96,0-3.73-0.78-4.31-3.14l-14.31-50.59h-18.63
			l-7.06,50c-0.2,1.96-1.96,3.73-3.73,3.73h-19.02c-1.96,0-3.14-1.76-2.75-3.73L1255.45,245.53z M1297.41,304.35
			c12.35,0,20.59-10.39,20.59-22.75c0-8.82-5.49-16.28-12.75-16.28h-26.86l-5.49,39.02h24.51V304.35z"/>
		<path class="st0" d="M1377.81,245.53c0.2-1.96,1.96-3.73,3.73-3.73h72.55c1.96,0,3.14,1.77,2.94,3.73l-2.35,16.08
			c-0.2,1.96-1.96,3.73-3.92,3.73h-50.2l-4.51,32.16h41.57c1.76,0,3.14,1.76,2.94,3.73l-2.35,16.28c-0.39,2.16-2.16,3.73-3.92,3.73
			h-41.57l-4.9,34.32h50.4c1.96,0,2.94,1.76,2.75,3.73l-2.16,16.08c-0.2,1.96-1.96,3.73-3.92,3.73h-72.55
			c-1.96,0-3.14-1.76-2.75-3.73L1377.81,245.53z"/>
		<path class="st0" d="M1484.87,243.37c0.2-1.96,1.96-3.53,3.73-3.53h5.1l59.81,84.71h0.2l10.59-79.02c0.2-1.96,1.76-3.73,3.73-3.73
			h19.02c1.76,0,3.14,1.77,2.94,3.73l-18.63,131.97c-0.2,1.96-1.96,3.53-3.73,3.53h-5.29l-59.61-87.26h-0.2l-10.59,81.57
			c-0.2,1.96-1.96,3.73-3.92,3.73h-18.82c-1.57,0-2.94-1.57-2.75-3.33L1484.87,243.37z"/>
		<path class="st0" d="M1624.88,245.53c0.2-1.96,1.96-3.73,3.73-3.73h72.55c1.96,0,3.14,1.77,2.94,3.73l-2.35,16.08
			c-0.2,1.96-1.96,3.73-3.92,3.73h-50.2l-4.51,32.16h41.57c1.77,0,3.14,1.76,2.94,3.73l-2.35,16.28c-0.39,2.16-2.16,3.73-3.92,3.73
			h-41.57l-4.9,34.32h50.4c1.96,0,2.94,1.76,2.75,3.73l-2.16,16.08c-0.2,1.96-1.96,3.73-3.92,3.73h-72.55
			c-1.96,0-3.14-1.76-2.75-3.73L1624.88,245.53z"/>
		<path class="st0" d="M1730.18,245.53c0.2-1.96,2.16-3.73,3.92-3.73h19.41c1.96,0,3.14,1.77,2.94,3.73l-11.37,80.2
			c-2.35,16.67,5.49,29.41,19.22,29.41c13.92,0,25.49-12.75,27.84-29.22l11.37-80.4c0.2-1.96,1.96-3.73,3.92-3.73h19.41
			c1.76,0,3.14,1.77,2.94,3.73l-11.57,81.57c-4.12,29.81-26.67,53.92-57.46,53.92c-27.26,0-46.28-24.12-42.16-53.92L1730.18,245.53z
			"/>
		<path class="st0" d="M1862.94,245.53c0.2-1.96,1.96-3.73,3.73-3.73h51.77c19.22,0,33.14,16.47,33.14,36.67
			c0,23.92-12.55,39.41-31.18,45.3l16.08,50.2c0.78,2.55-0.39,5.1-3.33,5.1h-18.63c-1.96,0-3.73-0.78-4.31-3.14l-14.31-50.59h-18.63
			l-7.06,50c-0.2,1.96-1.96,3.73-3.73,3.73h-19.02c-1.96,0-3.14-1.76-2.75-3.73L1862.94,245.53z M1904.9,304.35
			c12.35,0,20.59-10.39,20.59-22.75c0-8.82-5.49-16.28-12.75-16.28h-26.86l-5.49,39.02h24.51V304.35z"/>
		<path class="st0" d="M1961.96,359.85l7.65-11.18c1.76-2.75,4.51-2.16,6.08-0.78c2.75,2.35,12.35,10.2,24.32,10.2
			c8.82,0,17.45-6.86,17.45-16.67c0-8.63-5.88-14.31-16.86-21.57c-12.94-8.43-28.24-19.61-28.24-39.22s13.53-40.79,44.32-40.79
			c18.24,0,31.57,9.41,34.9,12.75c2.35,2.35,2.55,5.1,0.59,7.84l-7.65,10.78c-1.57,2.35-4.12,2.55-6.86,0.39
			c-3.14-2.55-12.16-8.63-22.16-8.63s-16.67,7.65-16.67,15.3c0,7.84,5.29,11.77,17.06,19.61c12.94,8.63,30.2,19.41,30.2,40.98
			c0,22.94-17.84,42.16-46.87,42.16c-20.2,0-34.12-11.77-37.26-15.29C1960.78,364.55,1959.8,362.79,1961.96,359.85z"/>
		<path class="st0" d="M2084.71,245.53c0.2-1.96,2.16-3.73,3.92-3.73h18.83c1.96,0,3.14,1.77,2.94,3.73l-7.26,51.96h53.53
			l7.25-51.96c0.2-1.96,1.96-3.73,3.92-3.73h18.83c1.76,0,3.14,1.77,2.94,3.73l-18.24,129.81c-0.39,1.96-2.16,3.73-3.92,3.73h-19.02
			c-1.96,0-2.94-1.76-2.75-3.73l7.65-54.12h-53.53l-7.65,54.12c-0.39,1.96-1.96,3.73-3.92,3.73h-19.02c-1.76,0-3.14-1.76-2.75-3.73
			L2084.71,245.53z"/>
		<path class="st0" d="M2224.72,245.53c0.2-1.96,1.96-3.73,3.73-3.73h19.22c1.76,0,3.14,1.77,2.75,3.73l-18.24,129.81
			c-0.2,1.96-1.96,3.73-3.73,3.73h-19.22c-1.76,0-3.14-1.76-2.75-3.73L2224.72,245.53z"/>
		<path class="st0" d="M2285.51,245.53c0.2-1.96,1.96-3.73,3.92-3.73h41.96c19.61,0,33.92,18.63,33.92,39.22
			c0,28.63-20.79,48.24-46.08,48.24h-20l-6.47,46.08c-0.2,1.96-2.16,3.73-3.92,3.73h-18.83c-1.96,0-3.14-1.76-2.75-3.73
			L2285.51,245.53z M2320.8,305.33c9.61,0,18.82-10.39,18.82-23.14c0-9.22-5.69-16.28-13.33-16.28h-18.24l-5.49,39.41L2320.8,305.33
			L2320.8,305.33z"/>
		<path class="st0" d="M2491.6,239.84c17.65,0,31.57,7.84,40.79,18.63c1.18,1.57,0.98,3.92-0.79,5.49l-10.59,10.2
			c-2.16,1.96-4.71,1.77-6.47,0c-5.1-4.9-13.53-9.8-24.32-9.8c-23.53,0-43.92,24.31-43.92,52.36c0,20.79,11.18,38.63,30,38.63
			c11.37,0,20.2-5.69,26.86-11.57c2.55-2.16,4.71-1.76,6.27,0.2l10.2,12.75c0.98,1.37,0.39,3.92-0.98,5.29
			c-13.73,13.14-28.63,19.02-44.32,19.02c-33.92,0-55.89-27.26-55.89-60.98C2418.46,273.96,2451.01,239.84,2491.6,239.84z"/>
		<path class="st0" d="M2559.83,245.53c0.2-1.96,1.96-3.73,3.92-3.73h19.02c1.76,0,2.94,1.77,2.75,3.73l-15.49,110.01h43.34
			c1.96,0,2.94,1.76,2.75,3.73l-2.16,16.08c-0.2,1.96-1.96,3.73-3.92,3.73h-65.49c-1.96,0-3.14-1.76-2.94-3.73L2559.83,245.53z"/>
		<path class="st0" d="M2647.69,245.53c0.2-1.96,2.16-3.73,3.92-3.73h19.41c1.96,0,3.14,1.77,2.94,3.73l-11.37,80.2
			c-2.35,16.67,5.49,29.41,19.22,29.41c13.92,0,25.49-12.75,27.84-29.22l11.37-80.4c0.2-1.96,1.96-3.73,3.92-3.73h19.41
			c1.76,0,3.14,1.77,2.94,3.73l-11.57,81.57c-4.12,29.81-26.67,53.92-57.46,53.92c-27.26,0-46.28-24.12-42.16-53.92L2647.69,245.53z
			"/>
		<path class="st0" d="M2780.44,245.53c0.2-1.96,1.96-3.73,3.92-3.73h40.79c19.02,0,32.94,14.71,32.94,31.96
			c0,18.04-14.12,31.96-23.92,36.28c8.04,3.14,18.24,11.96,18.24,27.26c0,23.73-17.65,41.77-44.12,41.77h-43.34
			c-1.96,0-3.14-1.76-2.75-3.73L2780.44,245.53z M2807.11,355.92c10.2,0,18.43-9.02,18.43-20c0-8.43-6.67-14.9-13.92-14.9h-16.28
			l-5.1,34.9H2807.11z M2812.4,299.45c10.39,0,18.24-9.22,18.24-20.39c0-8.04-4.71-13.92-11.57-13.92h-15.88l-4.9,34.32
			L2812.4,299.45L2812.4,299.45z"/>
		<path class="st0" d="M566.03,450.37c0-1.32,1.05-2.5,2.5-2.5h30.04c16.21,0,29.51,13.18,29.51,29.12
			c0,16.34-13.31,29.65-29.38,29.65h-19.1v30.96c0,1.32-1.19,2.5-2.5,2.5h-8.56c-1.45,0-2.5-1.19-2.5-2.5v-87.23H566.03z
			 M597.79,493.72c9.09,0,16.73-7.38,16.73-16.87c0-8.96-7.64-15.81-16.73-15.81h-18.18v32.68H597.79z"/>
		<path class="st0" d="M684.88,446.55c26.35,0,47.43,21.21,47.43,47.57c0,26.35-21.08,47.3-47.43,47.3s-47.3-20.95-47.3-47.3
			C637.58,467.77,658.53,446.55,684.88,446.55z M684.88,528.24c18.84,0,34.26-15.28,34.26-34.13c0-18.71-15.42-34.39-34.26-34.39
			c-18.71,0-34.13,15.68-34.13,34.39C650.75,512.96,666.17,528.24,684.88,528.24z"/>
		<path class="st0" d="M751.15,450.37c0-1.32,1.05-2.5,2.5-2.5h8.7c1.32,0,2.5,1.19,2.5,2.5v77.47h35.71c1.45,0,2.5,1.19,2.5,2.5
			v7.25c0,1.32-1.05,2.5-2.5,2.5h-46.91c-1.45,0-2.5-1.19-2.5-2.5L751.15,450.37L751.15,450.37z"/>
		<path class="st0" d="M816.9,450.37c0-1.32,1.19-2.5,2.5-2.5h8.7c1.32,0,2.5,1.19,2.5,2.5v87.22c0,1.32-1.19,2.5-2.5,2.5h-8.7
			c-1.32,0-2.5-1.19-2.5-2.5V450.37z"/>
		<path class="st0" d="M866.18,448.53c0.26-1.05,1.32-1.98,2.37-1.98h2.11c0.79,0,1.98,0.66,2.24,1.45l27.54,67.33h0.53l27.4-67.33
			c0.26-0.79,1.32-1.45,2.24-1.45h2.11c1.05,0,2.11,0.92,2.37,1.98l16.21,88.54c0.4,1.84-0.53,3.03-2.37,3.03h-8.56
			c-1.19,0-2.24-0.92-2.5-1.84l-9.75-58.9c-0.13,0-0.4,0-0.4,0L904,539.97c-0.26,0.79-1.05,1.45-2.24,1.45h-2.37
			c-1.05,0-1.98-0.66-2.24-1.45l-23.85-60.61c-0.13,0-0.4,0-0.53,0l-9.49,58.9c-0.13,0.92-1.32,1.84-2.37,1.84h-8.56
			c-1.84,0-2.77-1.19-2.5-3.03L866.18,448.53z"/>
		<path class="st0" d="M970.66,450.37c0-1.32,1.19-2.5,2.5-2.5h8.7c1.32,0,2.5,1.19,2.5,2.5v87.22c0,1.32-1.19,2.5-2.5,2.5h-8.7
			c-1.32,0-2.5-1.19-2.5-2.5V450.37z"/>
	</g>
	<g>
		<g>
			<path class="st0" d="M220.51,379.06h250.66c13.06,0,23.65,11.53,23.65,25.75s-10.59,25.75-23.65,25.75H220.51
				c-13.06,0-23.65-11.53-23.65-25.75S207.45,379.06,220.51,379.06z"/>
		</g>
	</g>
	<g>
		<g>
			<path class="st0" d="M239.78,552.84V359.8c0-13.06,11.53-23.65,25.75-23.65s25.75,10.59,25.75,23.65v193.05
				c0,13.06-11.53,23.65-25.75,23.65C251.3,576.5,239.78,565.91,239.78,552.84z"/>
		</g>
	</g>
</g>
</svg>
