<?xml version="1.0" encoding="utf-8"?>
<!-- Generator: Adobe Illustrator 25.3.0, SVG Export Plug-In . SVG Version: 6.00 Build 0)  -->
<svg version="1.1" id="Layer_1" xmlns="http://www.w3.org/2000/svg" xmlns:xlink="http://www.w3.org/1999/xlink" x="0px" y="0px"
	 viewBox="0 0 1080 1080" style="enable-background:new 0 0 1080 1080;" xml:space="preserve">
<style type="text/css">
	.st0{fill:#FFFFFF;}
	.st1{fill:#FB411D;}
	.st2{fill:#150369;}
	.st3{clip-path:url(#SVGID_2_);}
	.st4{clip-path:url(#SVGID_4_);}
</style>
<path class="st0" d="M173,663.3c-0.4,0-0.8-0.4-1-0.8c-0.2-0.4,0-1,0.4-1.2c1.6-1.2,2.4-2,2.8-2.4c-2,0.2-8.1,1.8-25,8.7
	c-0.2,0-0.2,0-0.4,0l-59.4,5.9c-0.6,0-1-0.2-1.2-0.8c-5.7-13.1-24.4-56.5-35.4-67.5c-1.4-1.4-4.8-4.8-8.1-4.2c-1,0.2-2.2,1-3.2,2
	c-1,1.2-1.8,2.8-2.6,5c-2.4,6.1-2.2,18,21,55.3c13.7,22.4,18.2,25.2,22.4,26.7c4.2,1.4,8.9,2,30.9-4c12.1-3.6,24.4-7.7,36.6-12.1
	c0.2,0,0.2,0,0.4,0c36.2-1.2,43.4-3.4,44.8-4.4C195.2,668.6,191.4,666.6,173,663.3z M135.4,690.8c4.4,0.2,8.9-4.6,13.5-13.7
	c-7.1,2.6-14.3,5.1-21.6,7.3C130.2,688.6,132.8,690.8,135.4,690.8z M72.8,880l-23.6,47.1c3.2,6.9,7.5,13.1,12.3,19
	c3,3.4,6.7,7.1,10.5,10.3l4.7-71.1C75.4,883.6,74,881.8,72.8,880z M90.2,983l1.4,37.2c4,0.6,7.9,1.2,11.9,1.8l6.5-34.7
	c-3-0.2-5.9-0.6-8.9-1.2C97.5,985,93.8,984.2,90.2,983z M755.7,514.1c-1.2-0.2-2.6-0.2-3.8-0.6c0,5.2-1,10.3-2.8,14.5l14.1-0.2
	c0-0.2-0.2-0.6-0.2-0.8c-1-5.7,1-10.7,4.7-11.5c-0.6-0.8-1-1.6-1.6-2.2C762.6,514.1,759.1,514.3,755.7,514.1z M765.4,526.6
	c0.8,4.2,3.6,7.5,5.9,7.1c2.4-0.4,3.8-4.4,3-8.7c-0.6-4-3.2-7.1-5.4-7.1c-0.2,0-0.4,0-0.4,0C766,518.3,764.6,522.4,765.4,526.6z
	 M511.7,890.7l17-0.2c0.4-11.3,11.7-28.1,25.5-44.2c-8.3,0.6-16.6,1.2-25,1.8l-1.8,0.2c-6.5,0.4-12.9,0.8-19.6,1.2l-3.2,0.2h-1
	l-7.9,0.4c-10.1,0.6-13.7,1.4-17,4.2c-10.1,8.7-7.1,27.1-0.2,64.4c8.1,42.8,13.7,72.3,16.2,84.8h4.8v19.6l16.8,3.8l2.8-23.4h2
	c0.2-14.7,0-29.5-0.6-44c-1.2-29.5-3.6-43.8-6.7-56.1c-1-3.8-2-7.7-3.2-11.3c-0.2-0.4,0-0.8,0.2-1
	C510.9,890.7,511.3,890.7,511.7,890.7z M471.7,895l-17,102.8l-3.6,29.3h16.4l8.7-23.8l1.6,0.4l9.5-25.5
	c-2.8-14.9-6.7-34.7-11.1-58.8C474.5,910.3,472.9,902.2,471.7,895z M301.6,675.4v-5.9h0.2v-9.3c-3,1-6.1,1.4-9.3,1.4h-1
	c-2.8,0-5.7-0.6-8.3-1.4v19.6l2.6,6.7H296c-0.2-0.8-0.4-1.8-0.8-3c-1.4-3.4-3.6-5.4-4.8-6.9c-1.2-1.2-2.2-2.2-1.6-3.4
	C289.5,672,290.9,671.2,301.6,675.4z M303.3,977c5.7,6.9,12.1,12.9,19.6,17.8c6.1,4.2,13.1,7.7,20.4,10.3l4.6-10.3l-7.3-73.5
	L303.3,977z M342.4,918l7.3,72.1l5.3-11.7l-6.7-69.1L342.4,918z M375.8,885.7c-0.8,0.8-1.4,1.4-2.2,2.2l14.9-21.8
	c-1.6,4.9-4.4,10.1-8.9,15.4l7.9,28.3c2.6-5.5,5.3-11.1,7.5-16.8c3-7.3,3.8-10.5,3.2-14.1c-0.8-5.3-4-8.7-4.8-9.5
	c-1.4-1.4-3-2.6-4.8-3.4l1.4-2l0.6-18L369.7,813L341,793.4l-52.3-19.6l-82.8-14.1l-43.4-1.6l5.7,44.8l15.1,74.3l16.4,19.2l23.4,7.1
	L273,903c78.8,3.2,99-13.3,100.6-14.9c-5.9,5.3-12.9,9.1-24,11.5l10.9,113.1c9.1,0.6,18.2-0.2,26.9-2.2c8.5-1.8,16.4-4.6,23.6-8.5
	l-33.3-117.9C377,884.5,376.4,885.1,375.8,885.7z M326.5,1000.2c-1.8-1-3.4-2-5.3-3.2c-1.8-1.2-3.6-2.6-5.4-4l-9.7,12.1
	c-0.2,0.2-0.6,0.4-1,0.4c-0.2,0-0.6,0-0.8-0.2c1.6,5.2,7.3,24.6,14.3,24.2c0.6,0,1-0.2,1.8-0.6c0,0,0-0.2-0.2-0.2l-2.6-15.5
	c0-0.4,0-0.6,0.2-1L326.5,1000.2z M140.5,339.2c0.4,0.4,0.6,0.8,0.4,1.4l-30.3,83.8l57.4-68.3V356c0.2-0.6,0.8-0.8,1.4-0.6
	c14.3,5.4,29.5,8.3,44.6,8.3c67.7,0,122.8-55.1,122.8-122.8c0-67.7-55.1-122.8-122.8-122.8S91.2,173.2,91.2,240.9
	C91.2,280,109.2,315.8,140.5,339.2z M498.2,240.9v171.7c0,8.3-3.2,15.7-8.7,21.2c6.5,5.2,13.1,10.3,20.2,14.7
	c0.2,0.2,0.4,0.4,0.6,0.6L579,549.6l-13.1-76.9c0-0.2-0.2-0.4,0-0.8c0.2-0.6,0.8-1,1.4-0.8c11.3,2.2,22.6,3.4,34.1,3.4
	c95.5-0.2,173.5-78.2,173.5-174.1c0-95.7-78-173.7-173.7-173.7c-61,0-118,32.5-149.3,84.8h17C485,211.6,498.2,224.7,498.2,240.9z
	 M979.7,197.8c-51.3,0-92.9,41.6-92.9,92.9c0,24.8,9.7,48.1,27.3,65.6l5.3,7.7l50.3,74.1l-12.9-55.7c0-0.4,0-0.8,0.4-1.2
	c0.2-0.2,0.8-0.4,1.2-0.4c7.1,1.6,14.3,2.6,21.6,2.6c51.1,0.2,92.7-41.4,92.7-92.7S1031,197.8,979.7,197.8z M124.5,649.6
	c-1.6,7.1-2,13.3-2.2,17.8l27.1-2.6c2.2-0.8,4-1.6,5.9-2.4c3-8.1,6.1-18,8.9-29.3c0-0.2,0.2-0.6,0.4-0.6c5.9-4.2,8.7-10.9,6.7-17
	c-1.6-5.3-5.9-7.9-7.7-8.7c-0.4-0.2-0.6-0.4-0.6-0.8c0-0.4,0-0.6,0.2-1c5-7.7,6.7-11.1,7.3-12.7c-2.4,1.4-8.3,6.5-11.1,13.5
	c-3,7.5-2,14.9-0.6,19.8v0.8l-17.6,33.1c-0.2,0.4-0.8,0.8-1.4,0.6c-0.6-0.2-1-0.6-0.8-1.2c0.2-6.3,0.4-12.5,0.2-18.8
	c-0.4-18.4-2.2-23-3-24.6c-1.8-4.2-4.4-8.3-7.9-11.9c0-0.2-0.2-0.2-0.2-0.4c4.4,14.1,3.4,24,1.4,30.9
	C128.1,638.3,126.3,642.1,124.5,649.6z M72.6,856.6c7.1,2.8,14.5,9.1,18.4,22.4c1,3.2,2.2,6.9,3.8,11.1c0.2,0.6,0,1.4-0.6,1.6
	c-0.2,0-0.2,0-0.4,0c-0.4,0-1-0.2-1.2-0.8c-1.6-4.2-3-8.1-3.8-11.3c-4-13.9-12.1-21.4-24.2-22.4c-2-0.2-3.6-1.6-4-3.6
	c-0.4-2,0.6-3.8,2.4-4.7c13.1-5.9,31.7-10.7,48.5-3.8c-4.4-19.6-9.9-39.4-16.4-58.6c0-0.2,0-0.2,0-0.4v-32.9c0-0.6,0.6-1.2,1.2-1.2
	c0.6,0,1.2,0.8,1.2,1.4v32.7c6.5,19.6,12.1,39.6,16.6,59.8c0,0.2,0,0.4,0,0.6c0.2,0,0.2,0.2,0.4,0.2c2.2,0.8,4.2,1.8,6.5,3l-2.6-129
	c0-0.2,0-0.4,0.2-0.6c-2.8,0.6-5.9,1-9.1,1.6c-3,0.4-11.1,1.4-22.8,1.6c-14.8,0.2-28.9-1-39.8-2.4v0.2c-6.5,22.8-8.5,46.3-5.9,69.5
	c4.6,42.6,23,74.3,37.8,93.5c0.2,0.2,0.2,0.6,0.2,0.8l-5.7,87.2c8.7,5.4,18.2,9.3,28.3,11.3c3.6,0.8,7.5,1.2,11.1,1.4l-1.4-9.9
	l15.2-0.2v-1.6h-21.4v-14.7h20.2c-8.1-14.9-15.2-28.7-21-40.6c-0.2-0.6,0-1.4,0.6-1.6c0.6-0.2,1.4,0,1.6,0.6
	c5.9,12.1,13.1,26.3,21.6,41.6h6.1c-13.3-24.2-31.9-59.6-37.6-79.4C91.6,862.2,81.3,857.4,72.6,856.6z M59.3,947.5
	c-2.8-3.2-5.3-6.7-7.5-10.3l-26.7,63.4c0,0,0,0.2-0.2,0.2l11.9,8.5l30.7-53.3C64.7,953.3,61.9,950.5,59.3,947.5z M71.4,850.9
	c6.7-3,15.4-5.9,24.4-6.7c-11.7-0.6-23.2,2.8-32.1,6.9c-1,0.4-1.2,1.4-1,2c0.2,0.8,0.6,1.4,1.8,1.6c2,0.2,4,0.6,6.3,1.2
	C69.2,854.8,69.2,851.9,71.4,850.9z M85.5,604.1c12.3-0.6,20.4-7.3,23.6-10.5l-10.3-4.2c-0.6-0.2-0.8-0.8-0.8-1.2v-14.5
	c0-0.6,0.4-1,0.8-1.2c3.6-1.4,6.3-4.2,8.3-7.5c5.7-9.5,5.3-24,4.8-28.3c-4,0.2-7.9,0-11.5-0.8c-7.7-1.4-13.3-5-17-8.1
	c-1,2.2-2.2,4.4-3.6,6.5c-1.6,2.2-3.6,4.5-5.9,6.3c-0.2,0-0.4,0.2-0.6,0.2c-2.4,0.4-4,2.2-3.8,4.2c0,1.4,1.4,2.8,3.2,3.2
	c0.4,0.2,0.6,0.4,0.8,0.8c2,5.3,3.2,10.7,3.6,16c0.2,3.4,0.2,6.7-0.2,10.1c-0.4,3.6-1.2,7.3-2.4,10.9c0,0.4-0.2,0.6-0.6,0.8
	l-15.8,7.1c0.4,0.2,0.6,0.6,1,0.8C63.5,598.3,72.6,604.8,85.5,604.1z M885,756c0.2-0.4,0.4-0.4,0.6-0.6c15.1-7.7,30.1-15.3,45.2-23
	c9.1-4.8,18.4-9.5,27.5-14.1l3.2-9.7c-3.2-0.8-6.5-2.2-9.1-4.2c-3.8-2.4-6.5-5.7-8.3-8.5l-1.4,9.7c-0.2,0.4-0.4,0.6-0.6,0.8
	c-1.6,1-3.2,2.2-4.9,3.2c-1.6,1-3.2,2.2-4.8,3.2l-50.3,33.9c-0.2,0.2-0.4,0.2-0.6,0.2c-15.4-0.2-19,0.8-20,1.4
	c0.4,0.2,1.6,1.2,5.3,2.6c0.4,0,0.8,0.6,0.8,1c0,0.6-0.2,1-0.6,1.2c-17.6,8.5-17,11.3-17,11.5c0.2,0.4,1.6,2.2,13.5,2.4
	c4.7,0.2,7.7,0.2,11.1-1.2C880.3,763.5,883.6,758.6,885,756z M1003.5,782.3c3.8-9.3,5.9-19.2,6.3-29.3c0.2-7.3-0.4-14.1-2-21.2
	c-7.5,2.8-17.2,5.5-28.5,6.7c-16.4,1.8-30.5-0.4-40.6-2.8L895.3,983c1.4,0.2,2.6,0.2,4,0.4c12.7,1.2,25.5,3.4,37.6,7.1
	c11.3,3.2,20,6.9,27.7,10.1c12.7,5.5,21.8,9.3,33.7,7.5c10.9-1.6,21.6-7.7,31.5-18l-26.3-207.2
	C1003.3,782.7,1003.5,782.5,1003.5,782.3z M957.3,529.2c-1.4-1.6-3.8-2.4-6.3-2c-2.2,1-11.5,4.9-20.8,0.2c-4-2-6.7-4.8-8.5-7.5
	c-1.2,3.8-2,7.9-2.2,11.7c0,1.2-1.4,25.4,11.5,31.3c3.2,1.6,7.1,1.6,11.5,0.6c0.4-0.2,0.8,0,1,0.2c0.2,0.2,0.4,0.6,0.4,1v12.7
	c2.8,0.8,6.1,1.4,9.7,1.4c4,0.2,7.7,0,10.9-0.4l-0.8-13.5l-0.2-2.4c-2.2-1.2-6.1-4.2-7.9-9.7c-2.4-6.9,0.4-12.7,1.2-14.3
	C959.3,535.5,959.3,531.7,957.3,529.2z M873,1032.5l13.1,3.8l20.2-15.1l13.5-32.3l-20.6-5.7l-6.9,29.9L873,1032.5z M1004.1,1021
	l-14.9,15.6h23.6l8.1-15.6l0.4-20.4l-17.6,7.1L1004.1,1021z M862.5,599.3l6.9-28.9l-5.9-5.5l0.6-52.9l5.1-19l-2.2-24.2l-5,17.4
	l-10.7,1.8l-4.5,9.1l6.5,13.3l-11.1,47.7l0.2,26.9l18.6,13.7l-2.8,1.8L826,620.3l7.3,15.8l34.1-28.9L862.5,599.3z M797.1,571
	l-3.8-4.2l-3.8,1.8l4.4,24.2l-6.7,38.6h14.1l2.8-41.6l11.3-28.9l-1-3.8L797.1,571z M737.5,714.4l-54.3,3l0.4,38.4l10.1,3l2,38.2
	l22.4,69.3l-0.8,56.1l-6.1,12.1l-35.1,47.3l11.5,11.7l-9.1-8.3l-19,16l18,29.9h5.6l-3.4-19.6l9.1-16.6l5.1,5l22.6-24.6l0.8,27.9
	l28.3-1.2l3.8-63.2l29.9-32.5l13.7-52.7L750.8,737L737.5,714.4z M737.7,1019c-0.2-0.2-0.4-0.6-0.4-1v-14.7h-12.5v18.2
	c0,0.2,0,0.4-0.2,0.6l26.5,9.9c0.2-0.6,0.4-1.2,0.6-1.8L737.7,1019z M724.6,559.9c0,0-0.2,0.2-0.4,0.2l26.3,12.1
	c0.2-2.8,0.6-5.3,1.4-7.3c1-2.4,2.2-4.2,4-5.5c2.4-1.6,4.9-1.4,6.9-1.2c1.6,0.2,3,0.4,4.7-0.4c5.2-2.2,8.1-12.1,6.9-23.2
	c-0.8,0.8-1.6,1.2-2.6,1.4h-1c-2.8,0-5.5-2.4-6.9-5.9l-16.2,0.2c-1.8,3.6-3.8,6.7-6.3,6.3c-1.6-0.2-2.8-2-3.4-5.3
	c-2-0.8-4.2-0.6-5.7,0.8c-1.8,1.8-1.8,5.3,0.2,7.3c0.2,0.2,0.4,0.6,0.4,1c-0.2,3-0.8,6.1-1.8,8.9
	C729.6,553.3,727.4,556.7,724.6,559.9z M620.2,667.4c0-0.2,0-0.2,0-0.4v-12.1c-0.8-0.8-1.4-1.6-2-2.4c-0.6-0.8-1.2-1.6-1.6-2.4
	c-1.4-2.6-2-5.3-2.2-8.3c0-0.4,0-0.6,0.2-0.8c1.8-2.4,2.6-5.3,2.2-7.7c-0.2-1-0.8-2-1.4-2.4c-1.4-1-3.8,0-4.6,0.4
	c-0.2,0.2-0.4,0.2-0.8,0l-27.7,4.4H582c-0.6,0-1-0.2-1.2-0.8c0,4-1.6,7.7-3.8,8.7c0,5.7,0.2,10.3,1,11.7c0.2,0.4,0,0.8-0.2,1.2
	c2-1,4.2-2,7.1-3.8c9.9-6.5,9.9-13.1,16-13.3c4-0.2,8.1,2.8,10.1,5.9c4.8,8.7-6.3,20.8-7.5,22.2c-0.6,0.6-2.2,2.4-4.6,4.4
	c0.4,0.2,0.6,0.6,0.6,1v7.5c6.3-3.8,12.5-7.7,18.8-11.5C618.8,668.2,619.4,667.8,620.2,667.4z M498.2,792.4c-15.4,2-20.4,3.6-22,4.2
	c2.2,0.8,9.9,2.2,36.6,3.2l59.8,3.8c-0.4-2.6-1-4.8-1.2-6.7c-1.2-5.9-1.6-8.9-1.8-10.9l-53.7,7.3c-0.2,0-0.4,0-0.8-0.2
	c-16-8.3-20.8-9.5-22.2-9.5c0.4,0.8,1.6,2.6,6.1,6.7c0.4,0.4,0.4,0.8,0.4,1.2C499,792,498.6,792.4,498.2,792.4z M631.5,784.5
	c-0.2,0-0.2,0.2-0.4,0.2c1,4.6,3.2,15.6-2.4,20.4c-1.6,1.4-3.6,2.2-10.5,2c-1.6,0-3.6,0-5.9-0.2c-8.9-0.4-16.4-1.2-21.8-2l-3.2,3.2
	c-4.6-0.2-9.3-0.4-13.9-0.6c-0.2-0.4-0.2-1-0.2-1.4c0,0,0,0-0.2,0l-6.9-0.4c0,0,0,0,0,0.2l-35.3,32.5c-0.2,0.2-0.6,0.4-0.8,0.4
	c-7.3-0.2-14.3,1-21,3.6c-3.4,1.4-6.7,3-9.5,5.3c1.2,0,2.4-0.2,3.6-0.2l24.4-1.6h1.2l43-21.2c0-4.2,0.2-8.7,0.4-13.5
	c0-0.6,0.6-1.2,1.2-1.2s1.2,0.6,1.2,1.2c-0.6,18.6-0.8,34.1-0.8,36.8l10.9,16.2l13.7-10.7v-44c0-0.6,0.6-1.2,1.2-1.2
	s1.2,0.6,1.2,1.2V854c0,0.4-0.2,0.8-0.4,1L585,866.9c-0.2,0.2-0.4,0.2-0.8,0.2H584c-0.4,0-0.6-0.2-0.8-0.6l-11.9-17.6
	c-0.2-0.2-0.2-0.4-0.2-0.6c0-0.2,0-7.1,0.4-17.4c-30.9,32.3-45,56.1-39,65.8c2.4,3.6,19.2,4,44.8,4.7c4,0.2,7.9,0.2,11.5,0.2
	c0.2,0,0.4-0.2,0.6,0h0.2c11.3,0.2,20.8,0.4,28.5,0c13.5-0.4,22.4-1.8,29.7-5.1c14.5-6.9,23-16.6,26.1-20.4
	c6.1-7.7,12.1-19.4,16.8-53.5c2.8-20.8,3.6-42.4,3-63.8c-10.7,2.4-21.4,5.6-31.7,9.9C651.5,773,641.2,778.2,631.5,784.5z M580.8,634
	c0.2-0.4,0.6-0.8,1-0.8l24.8-4c-1.2-0.8-2.2-1.8-3-2.6c-3.2-3.6-4.7-7.7-5.3-10.9c-4.2,2-8.5,3.4-12.9,4.2c-2.6,0.4-5.1,0.8-7.5,1
	c0,1.6-0.2,3.2-0.4,4.8C579.4,627.2,580.6,630.4,580.8,634z M589.5,691.8v6.3l-11.9,36.3l-3.2,46.4l14.7,6.7l5.1-5.7l0.6-80l5.4-6.1
	l-3.8-14.5L589.5,691.8z M291.8,619.1c-1.8,0.2-3.6,0.4-5.7,0.6c-1,3.2-1.8,6.1-2.8,9.1h7.3c0.2-3,0.6-5.4,1.4-6.9
	C292,620.9,292,620.1,291.8,619.1z M388.5,1012.7l-13.7,1.2l-2.4,10.3l16.2,10.7l19.4-3.2l-19.8-13.9L388.5,1012.7z M296.2,775.6
	l24.4,9.7l8.3-21.8l-6.9-27.3l-9.9-37.8l1.6-13.5l-9.9-14.9v8.3l-15.4-5.2l6.5,7.1l2,7.9l6.9,13.7l1.8,26.3l-1,5.4L296.2,775.6z
	 M280.2,630h11.1l3,2.8l-4.4,17.8l-10.9,9.5l-6.1,2.8L280.2,630"/>
<path class="st1" d="M98.5,572.8v14.5c4,1.8,7.9,3.4,11.9,5c-0.2,0.2-0.6,0.8-1.2,1.2c-3,3-11.3,9.7-23.6,10.5
	c-12.9,0.6-22-5.9-26.3-9.5c-0.4-0.2-0.6-0.6-1-0.8c-0.4-0.4-0.8-0.8-1-1c-0.2-0.2-0.4-0.4-0.4-0.4c5.4-2.4,10.7-4.8,16.2-7.3
	c1-3,2-6.7,2.4-10.7c1.2-10.9-1.2-19.8-3.4-25.5c-2.2-0.4-4-2.2-4.2-4.2c-0.2-2.4,1.8-5,4.8-5.5c1.6-1.4,3.6-3.4,5.7-6.1
	c2-3,3.2-5.9,4-7.9c2.6,2.4,8.5,7.1,17.6,9.1c5.1,1,9.3,1,12.3,0.6c0,0,0.2,2.6,0.2,6.7l0.2-0.2C112.4,551.2,110.4,568,98.5,572.8z
	 M122.7,577.5c-0.8-13.5-4.7-24.2-8.1-32.1c-0.6-1.4-1.2-2.6-1.8-3.8c0.6-0.6,1.2-1.2,2-2c2.6-3,5.9-7.9,6.3-14.3
	c1.2-13.5-10.1-22.4-13.3-24.8c-1.8-1.4-16.4-12.1-33.9-6.5c-2.4,0.8-15.3,4.9-19.8,16c-4.4,11.5,4.6,18.2-0.2,30.1
	c-4,10.1-11.5,8.9-13.7,17.6c-2.8,11.5,9.3,18,6.7,28.7c-2,8.1-9.7,7.3-17.4,16.2c-16.8,19.4-5.9,52.7-5.2,54.3
	c5,14.3,13.7,23.8,19.8,29.1c0.6,0.4,1,0.8,1.6,1.2l16.2-18.4l0.6-0.8c-0.8-1.2-1.8-2.6-2.6-4c-5.1-8.1-8.9-14.7-11.9-20.8
	c-11.9-22.8-10.9-30.9-9.1-35.7c0.8-1.8,2.8-7.1,6.9-7.9c0.4,0,0.6-0.2,1-0.2c3.6,0,6.7,3.2,8.3,4.8c6.3,6.5,15.6,23.8,22.8,39.6
	c0.4,0.8,0.8,1.8,1.2,2.6c0.2,0.6,0.4,1,0.8,1.6l1-1l41.8-48.1C123.3,593,123.7,586,122.7,577.5z M158.2,236
	c-6.5,0-11.7,5.3-11.7,11.7c0,6.5,5.3,11.7,11.7,11.7s11.7-5.3,11.7-11.7C170,241.2,164.7,236,158.2,236z M214,236
	c-6.5,0-11.7,5.3-11.7,11.7c0,6.5,5.3,11.7,11.7,11.7s11.7-5.3,11.7-11.7C225.7,241.2,220.5,236,214,236z M269.7,236
	c-6.5,0-11.7,5.3-11.7,11.7c0,6.5,5.3,11.7,11.7,11.7c6.5,0,11.7-5.3,11.7-11.7C281.5,241.2,276.2,236,269.7,236z M534.7,298
	c-8.3,0-15.1,6.9-15.1,15.1c0,8.3,6.9,15.1,15.1,15.1c8.3,0,15.2-6.9,15.2-15.1C549.9,304.9,543.2,298,534.7,298z M599.8,298
	c-8.3,0-15.1,6.9-15.1,15.1c0,8.3,6.9,15.1,15.1,15.1c8.3,0,15.1-6.9,15.1-15.1C614.9,304.9,608,298,599.8,298z M664.8,298
	c-8.3,0-15.1,6.9-15.1,15.1c0,8.3,6.9,15.1,15.1,15.1c8.3,0,15.1-6.9,15.1-15.1C680,304.9,673.1,298,664.8,298z M933.8,287.3
	c-5.5,0-9.7,4.4-9.7,9.7c0,5.3,4.4,9.7,9.7,9.7c5.3,0,9.7-4.4,9.7-9.7C943.5,291.7,939.1,287.3,933.8,287.3z M980.5,287.3
	c-5.5,0-9.7,4.4-9.7,9.7c0,5.3,4.4,9.7,9.7,9.7c5.2,0,9.7-4.4,9.7-9.7C990.2,291.7,986,287.3,980.5,287.3z M1027.2,287.3
	c-5.5,0-9.7,4.4-9.7,9.7c0,5.3,4.4,9.7,9.7,9.7s9.7-4.4,9.7-9.7C1036.9,291.7,1032.6,287.3,1027.2,287.3"/>
<path class="st2" d="M366.3,609.2c-1.2-6.5-6.1-13.3-13.7-15.4c-1.2-0.2-8.7-2-13.9,2.2c-6.1,4.8-3,12.7-8.7,15.8
	c-4.2,2.2-8.5-0.6-10.7,2.4c-0.4,0.4-0.4,0.8-1.8,7.1c-0.6,3-1,4.4-1.2,5.1c-1,3.6-2.4,7.1-3.2,9.3c-2,5.1-4,9.7-2.2,12.1l0.2,0.2
	c1.6,1.6,5.1-2.2,12.3-3.8c8.9-1.8,12.3,2.4,17.2-0.6c4.7-2.8,1.8-7.7,6.7-11.9c5.7-4.8,10.9-1.4,15.8-6.3
	C368.5,619.9,366.5,610,366.3,609.2z M833.3,635.9c-0.2-0.6-0.4-1.4-0.6-2.4c-0.4-1.6-1.2-3.4-2-6.1c-1.2-3-2.2-5.3-2.8-6.9
	c-0.4-0.8-0.8-1.6-1-2.2c-1-1.8-1.4-2-1.8-2c-3.2-1-8.3,3.6-12.5,10.7l-8.7,2.8l1.8,23.6c5.7-3.6,11.1-7.3,16.8-10.9
	c1,0,8.7,0.6,10.9-3.4C833.5,638.5,833.7,637.7,833.3,635.9z M786.8,629.8l-3.2,12.7l-4.6-15.1c-3.4-5.3-7.1-11.1-10.3-17.8
	c-6.7-12.9-10.9-25-13.7-35.3l-2.4-1.2l-2-1l-26.3-12.1l-1.6-0.8l-1-0.6l-5.5,7.7c-2.6,1.6-5.7,3.8-9.1,6.9
	c-3.4,3-7.1,6.7-10.7,11.1c-2.2,2.8-9.1,11.7-13.7,25c-5.9,17-3.8,28.5-1.4,68.1c0.6,8.9,1.4,22.6,2,39.8c3,0.8,7.9,2,13.7,3.2
	c3.8,0.8,7.3,1.4,10.1,1.8c9.5,1.4,14.5,1.4,22,3.6c5.2,1.6,12.9,4.6,21.6,10.9c3.6-17.2,7.3-34.5,10.9-51.7l-24.6-44.4l26.7,35.3
	c10.3,13.9,21.6,22,27.7,19.2c0.8-0.4,1.4-0.8,2-1.4c2.6-2.8,3.6-8.3,5.7-16.4c1.8-8.5,2.4-15.8,2.4-20.8l1.8-26.7H786.8z
	 M310.7,739.1c-4.4-4.2-8.9-8.5-13.3-12.7c3.6-19.6,0-27.9-4.2-31.9c-2-1.6-4.6-3-7.7-5.2c-0.4-0.2-0.6-0.4-1-0.8
	c-1.4-1.2-3.2-2.6-4.8-4.4c-3.2-3.4-5.5-6.7-6.7-8.9c-0.2,0.8-0.4,1.8-0.6,2.6c0,0,0,0,0,0.2c-6.7,29.3-13.3,58.6-20,87.8
	c0,0.2-0.2,0.6-0.2,0.8c9.3,1.6,19.2,3.6,29.7,6.3c10.3,2.6,19.8,5.4,28.7,8.5c0-0.4,0.2-0.6,0.2-1c1.4-5.4,2.8-12.7,2.6-21.4
	C313.4,750.8,312.1,744.1,310.7,739.1z M664.2,733.8c-0.8-12.9-2.2-34.1-18.2-48.7c-7.5-6.7-15.5-9.7-20.4-11.1l-2.4-8.5
	c-0.2,0.2-0.4,0.2-0.6,0.4c-0.8,0.4-1.6,1-2.4,1.4c-0.8,0.4-1.4,0.8-2,1.2c-6.3,3.8-12.5,7.7-18.8,11.5c-0.2,0.2-0.6,0.4-0.8,0.4
	c0.4,5,0.6,9.9,1,14.9c-1.6,2-3,4.2-4.6,6.3c-1.4,12.5-2.2,26.7-2.4,41.8c0,12.7,0.6,24.6,1.6,35.5c0,1,0.2,1.8,0.2,2.6
	c-2.4,1.2-4.8,2.4-7.3,3.4l-1.4-4c-2.2-0.4-12.5-2.4-15.6,2c0,0.2-0.2,0.2-0.2,0.4c-0.2,0.6-0.4,1.4-0.4,2.6c0,1.8,0.6,5.1,1.8,10.9
	c0.4,1.8,0.8,4,1.2,6.7c0.2,0.8,0.2,1.6,0.4,2.4c0,0.4,0.2,1,0.2,1.4c4.7,0.2,9.3,0.4,13.9,0.6l3.2-3.2c5.5,0.8,12.9,1.6,21.8,2
	c2.2,0.2,4.2,0.2,5.9,0.2c6.9,0.2,8.9-0.6,10.5-2c5.7-4.8,3.6-16,2.4-20.4c-0.2-0.8-0.4-1.4-0.4-1.8c10.3-5.3,20.4-10.5,30.7-15.8
	c0-0.2,0.2-0.6,0.2-0.8C664.8,752.6,664.6,741.1,664.2,733.8z M122.1,685.7c0-0.2,0-0.6,0-0.8c-2.6,0.8-5.3,1.6-7.7,2.2
	c-21.4,5.9-26.9,5.6-31.5,4c-4.6-1.6-9.1-4.4-23-27.1c-5.1-8.3-9.1-15.3-12.3-21.4c0,0,0,0.2,0,0.4c0,0.6,0,1,0,1.6
	c-0.4,10.1-1.2,21-2.6,32.3c-0.4,3-0.8,5.9-1,8.9c-1.6,11.9-3.4,23.2-5.7,33.7c1.8,0.4,4,0.6,6.3,1c0.8,0,1.6,0.2,2.2,0.2
	c10.9,1.4,25,2.6,39.8,2.4c11.7-0.2,19.8-1.2,22.8-1.6c3.2-0.4,6.3-1,9.1-1.6c0.6-0.2,1.2-0.2,1.8-0.4c2.6-0.6,5.1-1,7.3-1.8
	C125.1,709.8,122.7,698.7,122.1,685.7z M127.7,603.1v-0.2c-0.2-0.6-0.4-1-0.6-1.6c-1.6-0.8-3.4-1.8-5-2.6c-3.2-1.6-6.5-3.4-9.9-5
	c-0.6-0.2-1-0.6-1.6-0.8c-0.2,0.2-0.6,0.6-1.2,1.2c-3.4,3.2-13.7,11.5-28.1,10.3c-10.9-0.8-18.6-6.3-22.2-9.7
	c-0.4-0.2-0.6-0.6-1-0.8c-0.4-0.4-0.8-0.8-1-1c-0.4,0.2-0.8,0.6-1.2,0.8c-2.6,1.6-5.3,3.2-7.9,4.8c-0.6,0.4-1.2,0.6-1.8,1
	c-0.2,0.2-0.6,0.4-0.8,0.6c4-0.8,7.7,3,9.3,4.6c3.2,3.4,7.3,9.7,11.5,17.4c2.2,4,4.4,8.5,6.9,12.9c0,0.2,0.2,0.2,0.2,0.4
	c1,1.8,1.8,3.6,2.6,5.7c0.4,1,1,2,1.4,3c0.4,0.8,0.8,1.8,1.2,2.6c0.2,0.6,0.4,1,0.8,1.6c5.2,11.3,9.5,21,10.9,24.4
	c10.7-1,21.4-2,31.9-3.2c0-0.6,0-1.2,0-1.8c0-4.6,0.6-10.7,2.2-17.8c1.8-7.5,3.6-11.3,4.8-15.5C131.2,627.2,132.2,617.3,127.7,603.1
	z M495.1,227.9c-1.6-1.2-3.2-2.4-5-3.2c-3.8-2-8.3-3.2-13.1-3.2H343.1c1.4,8.1,9.1,58.4-26.1,103c-32.3,41.2-78,47.9-87.1,48.9v52.1
	c0,3.4,0.6,6.7,2,9.7c0.6,1.6,1.4,3,2.4,4.4c4.4,6.5,11.9,10.7,20.4,10.7h38.8v69.5l40.2-69.5h141.8c7.9,0,15.1-3.2,20.4-8.3
	c0.6-0.6,1.2-1.2,1.6-1.8c4.4-5,7.3-11.9,7.3-19.2V249.3C505,240.9,501.2,233.2,495.1,227.9z M928,86.8c-0.6-3.2-1.6-6.3-3-9.3
	c-7.9-18.8-26.5-31.9-48.1-31.9H760.1c-28.7,0-52.3,23.4-52.3,52.3v54.7c10.7,7.5,57.2,41.8,71.5,107.4
	c12.5,57.4-7.5,103.2-17.2,121.8c-0.6,1-1,1.8-1.4,2.6c-1,1.6-1.8,3-2.4,4c2.8,0,5.4,0.2,8.3,0.2h14.7l-7.3,39.4l-1,6.1l-2.8,15.8
	l40.2-61.2h66.7c14.9,0,28.7-6.5,38.2-16.8c-0.2-0.2-0.6-0.4-0.8-0.6c-0.6-0.4-1.2-1-1.8-1.6c-22.2-18.8-36.4-46.9-36.4-78.3
	c0-37.4,20-69.9,49.5-87.8c0.8-0.6,1.6-1,2.4-1.4c0.4-0.2,0.8-0.4,1.2-0.6V97.9C929.2,94,928.8,90.4,928,86.8"/>
<g>
	<defs>
		<rect id="SVGID_1_" x="22.5" y="38.7" width="1052.4" height="1005.7"/>
	</defs>
	<clipPath id="SVGID_2_">
		<use xlink:href="#SVGID_1_"  style="overflow:visible;"/>
	</clipPath>
	<g class="st3">
		<path class="st1" d="M1005.5,783.3c4.2-9.7,6.5-19.8,6.9-30.1c0.2-7.5-0.4-14.8-2.2-22c0,0,0-0.2-0.2-0.2
			c-0.2-0.6-0.8-0.8-1.2-0.8c-0.6,0.2-1,0.8-1,1.4v0.2c1.6,7.1,2.2,13.9,2,21.2c-0.4,10.1-2.4,20-6.3,29.3c0,0.2-0.2,0.4,0,0.6
			l26.3,207.2c-9.9,10.3-20.6,16.3-31.5,18c-11.9,1.8-21-2-33.7-7.5c-7.7-3.2-16.4-6.9-27.7-10.1c-12.1-3.6-24.8-5.9-37.6-7.1
			c-1.4-0.2-2.6-0.2-4-0.4l43.4-247.4v-0.2c0.2-0.6-0.4-1.2-1-1.4c-0.6-0.2-1.2,0.4-1.4,1l-43.6,249c0,0.4,0,0.6,0.2,1
			c0.2,0.2,0.6,0.4,0.8,0.4c1.2,0,2.6,0.2,3.8,0.2l-5.1,27.7l-14.1,14.9c-0.4,0.4-0.4,1.2,0,1.8c0.2,0.2,0.6,0.4,0.8,0.4
			c0.4,0,0.6-0.2,0.8-0.4l14.3-15.1c0.2-0.2,0.2-0.4,0.4-0.6l5.1-28.3c6.1,0.6,11.9,1.4,17.8,2.6l-12.3,30.9c-0.2,0.6,0,1.4,0.6,1.6
			c0.2,0,0.2,0,0.4,0c0.4,0,1-0.2,1.2-0.8l12.5-31.3c5.3,1,10.7,2.4,15.8,3.8c11.1,3.2,19.8,6.9,27.3,10.1c10.7,4.4,19,8.1,28.9,8.1
			c2,0,4-0.2,6.1-0.4c1.8-0.2,3.4-0.6,5.3-1.2l1,11.5l-7.3,7.5c-0.4,0.4-0.4,1.2,0,1.8c0.2,0.2,0.6,0.4,0.8,0.4
			c0.4,0,0.6-0.2,0.8-0.4l7.7-7.9c0.2-0.2,0.4-0.6,0.4-1l-1-12.5c4.4-1.4,8.9-3.6,13.3-6.5v16.4c0,0.6,0.6,1.2,1.2,1.2
			c0.6,0,1.2-0.6,1.2-1.2v-18.2c3.4-2.6,6.9-5.4,10.1-8.9c0.2-0.2,0.4-0.6,0.4-1L1005.5,783.3z M867.6,607c-0.4-0.6-1.2-0.6-1.6-0.2
			l-33.3,26.7l-0.6,0.4c-0.6,0.4-0.6,1.2-0.2,1.6c0.2,0.2,0.6,0.4,1,0.4c0,0,0.2,0,0.4,0c0.2,0,0.4,0,0.4-0.2l33.7-27.1
			C868,608.2,868,607.4,867.6,607z M858.3,600.3c-0.4-0.6-1-0.8-1.6-0.4l-29.9,18.6h-0.2c-0.6,0.4-0.8,1-0.4,1.6
			c0.2,0.4,0.6,0.6,1,0.6c0.2,0,0.4,0,0.6-0.2l30.1-18.6C858.5,601.7,858.7,600.9,858.3,600.3z M868.6,469.7c-0.4-0.6-1-0.8-1.4-0.8
			c-1.2,0-2.8,0-5,17.4c-5.3-1-10.5,0.4-13.1,4c-3.2,4.2-1.8,9.9-1,12.7c0.6,2.6,1.8,5.1,3.4,7.3c-3,14.5-5.9,29.3-8.5,44
			c-0.8,4-1.4,7.5-2,10.7c-1.4,9.9-1,16.8,3.4,22.8c2.4,3.4,6.1,6.3,10.3,8.1c0.2,0,0.4,0.2,0.4,0.2c0.4,0,1-0.2,1.2-0.8
			c0.2-0.6,0-1.4-0.6-1.6c-4-1.8-7.1-4.2-9.3-7.3c-4-5.5-4.2-11.9-3-21.4c0.4-3,1-6.5,1.6-10.3c2.6-14.7,5.5-29.7,8.5-44.4
			c0-0.4,0-0.6-0.2-1c-1.6-2-2.6-4.4-3.2-6.9c-0.6-2.6-1.8-7.3,0.6-10.5c2.2-3,7.1-4,11.9-2.8c0.4,0,0.6,0,1-0.2
			c0.2-0.2,0.4-0.6,0.6-0.8c1.2-9.9,2.2-13.9,2.8-15.5c1.2,3.4,2.2,13.5,0.2,24c-1,5-2.8,10.1-5,14.7c0,0.2-0.2,0.4-0.2,0.6
			l1.8,53.1v2.4c0,0.2,0.2,0.6,0.4,0.8l3.2,3.4c0.4,0.4,1,0.4,1.4,0.2c0.2,0,0.2,0,0.4-0.2c0.2-0.2,0.4-0.8,0.2-1.2
			c0-0.2-0.2-0.4-0.2-0.6l-3-3V565l-1.8-52.9c2.4-4.8,4.2-9.9,5.3-15.1C872,485.2,870.6,472.3,868.6,469.7z M963.3,707.3
			c-0.6-0.2-1.4,0-1.6,0.8l-0.2,0.4l-3.2,9.7c-9.1,4.6-18.4,9.3-27.5,14.1c-15.1,7.7-30.1,15.4-45.2,23c-0.2,0.2-0.4,0.2-0.6,0.6
			c-1.4,2.6-4.6,7.5-10.3,9.9c-3.4,1.4-6.5,1.4-11.1,1.2c-11.9-0.2-13.3-2-13.5-2.4c0-0.2-0.6-3,17-11.5c0.4-0.2,0.6-0.6,0.6-1.2
			c0-0.4-0.4-1-0.8-1c-3.6-1.4-4.8-2.4-5.3-2.6c1-0.6,4.6-1.6,20-1.4c0.2,0,0.4,0,0.6-0.2l50.3-33.9c1.6-1,3.2-2.2,4.8-3.2
			c1.6-1,3.2-2.2,4.9-3.2c0.2-0.2,0.4-0.4,0.6-0.8l1.4-9.7v-0.4c0-0.6-0.6-1.2-1.2-1.2s-1.2,0.4-1.2,1.2l-1.2,9.3c-1.4,1-3,2-4.4,3
			c-1.2,0.8-2.6,1.8-3.8,2.6c-0.4,0.2-0.6,0.4-1,0.6l-50.1,33.7c-20.2-0.2-22,1.6-22.2,3.4c-0.2,1.4,1,2.8,4.4,4.2
			c-14.9,7.5-16.4,10.9-15.8,13.1c1,3.4,8.1,4,16,4.2h3.2c3,0,5.7-0.2,8.7-1.4c6.7-3.2,10.1-8.3,11.7-11.1
			c14.9-7.7,29.9-15.4,45-22.8c0.2-0.2,0.6-0.2,0.8-0.4c9.1-4.6,18-9.3,27.1-13.9l0.6-0.6l3.4-10.5
			C964.3,708.4,964.1,707.5,963.3,707.3z M966.8,578.1l-0.2-3L966,565l-0.2-3c0-0.4-0.2-0.8-0.6-1c-1.6-0.8-5.7-3.4-7.3-8.7
			c-2-5.9,0.4-10.9,1-12.1c2.8-3.4,3-8.7,0-12.1c-2-2.4-5.4-3.4-8.7-2.8c-0.2,0-0.2,0-0.2,0c-1.6,0.8-10.1,4.7-18.8,0.2
			c-4.6-2.2-7.3-5.9-8.9-8.5c-0.2-0.4-0.6-0.6-1.2-0.6c-0.4,0-0.8,0.4-1,0.8c-1,2.6-1.8,5.3-2.4,7.9c-0.4,2.2-0.8,4.6-0.8,6.9
			c-0.2,2.8-1.4,26.2,12.1,33.1c0.2,0.2,0.6,0.2,0.8,0.4c3.4,1.4,7.3,1.8,11.5,1v15.3c0,0.6,0.6,1.2,1.2,1.2s1.2-0.6,1.2-1.2v-17
			c0-0.4-0.2-0.8-0.4-1c-0.2-0.2-0.6-0.4-1-0.2c-4.4,1-8.3,1-11.5-0.6c-12.9-5.9-11.5-30.1-11.5-31.3c0.2-3.8,1-7.9,2.2-11.7
			c1.8,2.6,4.5,5.4,8.5,7.5c9.3,4.7,18.6,0.8,20.8-0.2c2.4-0.4,4.8,0.4,6.3,2c2,2.4,2,6.3-0.4,9.3c-0.8,1.6-3.6,7.5-1.2,14.3
			c1.8,5.4,5.7,8.5,7.9,9.7l0.2,2.4l0.8,13.5l0.2,5c0,0.6,0.6,1.2,1.2,1.2s1.2-0.6,1.2-1.2L966.8,578.1z M707,936.2l-27.5,36.8
			l-38.2-71.5c2.6-0.8,5.3-1.6,7.7-3c14.9-7.1,23.8-17,27.1-21c6.3-7.9,12.5-19.8,17.2-54.7c1-8.5,1.8-17,2.4-25.6
			c0.2,1,0.4,1.8,0.8,2.6c0.2,0.4,0.2,0.6,0.4,1c1.2,3.4,2.6,7.1,3.8,10.9c2,6.3,4.2,12.5,6.3,18.8c3.8,11.7,7.5,23.8,11.1,35.9
			l-0.8,56.1L707,936.2z M716.7,971.7c-3.2,3.6-6.5,7.5-9.7,11.1c-4.2,4.8-8.3,9.7-12.3,14.8l-3.8-3.2l-10.1-18.8v-0.2l26.3-34.9
			l4.2-5.9l5.9-7.9L716.7,971.7z M679,977.4l0.2,0.4l6.7,12.3l-3-2.6l-6.7-5.7l1.2-2.2L679,977.4z M705,1026c1.4,2.4,2,4.6,2,6.7
			c0,1.6-0.4,3-1.2,4.2c-1.6,2.6-4.9,4.2-9.1,4.4c-0.4,0-0.6,0-1,0h-26.1c1.2-0.6,2.2-1.4,3-2.4c0.2-0.2,0.4-0.4,0.6-0.8
			c2.4-3.8,2.4-8.7,0.2-13.7l-0.6-1.2l-8.1-18.2l-1.6-3.6l13.9-13.1c0.4-0.6,0.4-1.4,0-1.8c-0.6-0.4-1.4-0.4-1.8,0L662,999
			L619.2,904c7.9-0.4,14.3-1,20-2.2l39,72.9l-2.4,3.2l-1.8,3.2c-0.4,0.6-0.2,1.2,0.2,1.6l3.6,3l9.7,8.1l-8.9,17.4
			c-0.2,0.2-0.2,0.6-0.2,0.8l2.6,17.2c0,0.2,0.2,0.4,0.4,0.6c0.2,0.2,0.4,0.4,0.8,0.4h0.2c0.2,0,0.6-0.2,0.8-0.4
			c0.2-0.2,0.4-0.6,0.2-1l-2.6-16.8l8.3-16.4L705,1026z M581.2,1041.4c-4.8,0-8.9-2-11.7-5.3c-2.8-3.4-3.8-7.9-2.8-12.5l23.4-119.8
			c6.7,0.2,12.5,0.2,18,0.2h8.3l1.8,4l41.4,91.7l0.4,1l-0.4,0.4c-0.4,0.6-0.4,1.4,0,1.8c0.2,0.2,0.4,0.4,0.8,0.4
			c0.2,0,0.2-0.2,0.4-0.2h0.2l0.6,1.4l9.5,20.8c2,4.2,2,8.3,0,11.3c-0.2,0.2-0.2,0.4-0.4,0.6c-2,2.6-5.4,4-9.9,4H581.2z
			 M542.4,1041.4c-2.2,0-4.2-1-5.7-2.8c-2.6-3.2-3.4-8.9-2-14.7l27.9-120.6c4.4,0.2,9.3,0.2,14.8,0.4c3.6,0,7.3,0.2,10.5,0.2
			l-23.2,119.4c-1.2,5.5,0,10.7,3.2,14.5c1.2,1.4,2.6,2.6,4.2,3.6H542.4z M528.7,890.5l-17,0.2c-0.4,0-0.8,0-1,0.4
			c-0.2,0.2-0.4,0.6-0.2,1c1.2,3.6,2.2,7.5,3.2,11.3c3,12.3,5.5,26.7,6.7,56.1c0.6,14.5,0.8,29.3,0.6,44h-26.5
			c-2.4-12.5-8.1-42-16.2-84.8c-6.9-37.4-9.9-55.7,0.2-64.4c3.2-2.8,6.9-3.6,17-4.2l7.9-0.4h1l3.2-0.2c6.7-0.4,13.1-0.8,19.6-1.2
			l1.8-0.2c8.5-0.6,16.8-1.2,25-1.8C540.4,862.4,529.1,879.2,528.7,890.5z M477.8,1003.6l-3.2-0.8l-19.8-5l17-102.8
			c1.2,7.3,2.8,15.4,4.4,24.4c4.4,24,8.3,43.8,11.1,58.8L477.8,1003.6z M571.7,827.3c-5,5.1-10.3,10.7-15.1,16.4
			c-7.1,0.6-14.1,1.2-21.4,1.6L571.7,827.3z M795.9,859.2c-0.2-1.2-0.6-2.6-0.8-4c-0.2-0.6-0.4-1.2-0.4-1.8c-0.4-1.4-0.8-3-1.4-4.8
			c-2-6.9-5-16.1-9.5-28.9c-9.3-26.7-19.4-52.9-30.9-78.4c-0.2-0.4-0.6-0.6-1-0.6c-0.2,0-0.4,0-0.6,0c-0.6,0.2-0.8,1-0.6,1.6
			c10.7,25.5,20.8,51.7,30.1,78.2c5.1,14.3,8.3,24.2,10.1,31.1c0,0.2,0.2,0.6,0.2,0.8c0.4,1.2,0.6,2.2,0.8,3.2
			c0,0.2,0.2,0.4,0.2,0.6c0.6,2,0.8,3.8,1,5.4c0.6,4.2,0.6,6.9,0.2,9.5c0,0.6-0.2,1-0.2,1.6c-1.2,9.9-5,17.6-12.3,27.1
			c-1,1.2-2,2.4-3,3.6c-5.7,6.9-12.9,14.7-22.2,24.6c-2,2.2-4.4,4.7-6.7,7.1l3.4-56.5l4-5.5c0.4-0.4,0.4-1.2-0.2-1.6
			c-0.4-0.4-1.2-0.4-1.6,0.2l-1.8,2.6l0.2-4v-8.5l-0.4-10.1v-4.2l-2.4-78c0-0.6-0.6-1.2-1.2-1.2c-0.6,0-1.2,0.6-1.2,1.2l2.6,78.6
			v4.4l0.2,8.5v3.6l0.2,5.3l-8.1,130.9h-24.4l1.8-134.7c0-0.2,0-0.2,0-0.4c-4-14.1-8.5-27.9-12.9-41.4c-1.6-4.4-3-9.1-4.6-13.5
			c-1.4-4.2-2.8-8.1-4.2-11.9c-0.8-2.4-1.8-5.1-2.6-7.5c0,0,0-0.2-0.2-0.2V791c0-0.2,0-0.6,0-1c0.6-10.9,0.6-22,0.2-32.9
			c0-0.2,0-0.2,0-0.2v-0.4l-0.2-0.2c0-0.2-0.2-0.2-0.2-0.2h-0.2c-3-0.2-5.9-0.4-8.9-0.4c-0.6-4.4-1.2-9.1-1.6-13.9
			c-0.4-6.9-0.6-13.7-0.2-20.6c0-0.6-0.4-1-1-1.2H683c-0.6,0-1.2,0.6-1.2,1.2c-0.4,6.9-0.4,13.9,0.2,20.8c0.2,4.6,0.8,9.3,1.6,13.7
			H680c-4.6,0.2-9.5,0.6-14.3,1.4c-0.6,0.2-1.2,0.8-1,1.4c0.2,0.6,0.6,1,1.2,1h0.2c4.6-0.8,9.5-1.2,14.1-1.4h5.9
			c-8.3,2.2-16.6,5-24.4,8.1c-0.2,0-0.2,0-0.4,0.2c-10.7,4.4-21.2,9.7-30.9,16c-0.6,0.2-0.8,1-0.4,1.6c0.2,0.6,0.8,0.8,1.2,0.6
			c0.2,0,0.2-0.2,0.4-0.2c9.7-6.3,20-11.5,30.5-15.8c10.3-4.2,21-7.5,31.7-9.9c0.6,21.4-0.2,43-3,63.8
			c-4.6,34.1-10.7,45.8-16.8,53.5c-3,3.8-11.5,13.5-26.1,20.4c-7.3,3.4-16.2,4.7-29.7,5.1c-7.7,0.2-17.2,0.2-28.5,0h-0.2
			c-0.2-0.2-0.4,0-0.6,0c-3.6,0-7.5,0-11.5-0.2c-25.7-0.6-42.4-1-44.8-4.7c-6.1-9.7,8.1-33.5,39-65.8c-0.4,10.3-0.4,17.2-0.4,17.4
			c0,0.2,0,0.4,0.2,0.6l11.9,17.6c0.2,0.4,0.4,0.6,0.8,0.6h0.2c0.4,0,0.6,0,0.8-0.2l15.3-11.9c0.2-0.2,0.4-0.6,0.4-1v-44.6
			c0-0.6-0.6-1.2-1.2-1.2s-1.2,0.6-1.2,1.2v44l-13.7,10.7l-10.9-16.2c0-2.6,0.2-18.2,0.8-36.8c0-0.6-0.6-1.2-1.2-1.2
			s-1.2,0.6-1.2,1.2c-0.2,4.9-0.4,9.3-0.4,13.5l-43,21.4h-1.2l-24.4,1.6c-1.2,0-2.4,0.2-3.6,0.2c2.8-2.2,6.1-3.8,9.5-5.3
			c6.7-2.6,13.7-3.8,21-3.6c0.2,0,0.6-0.2,0.8-0.4l35.3-32.5c0-0.2,0-0.2,0-0.2l6.9,0.4c0,0,0,0,0.2,0c0.6,0,1-0.6,1-1.2
			c0-0.6-0.6-1.2-1.2-1.2h-0.4l-59.8-3.8c-26.7-1-34.3-2.4-36.6-3.2c1.6-0.6,6.7-2.2,22-4.2c0.4,0,0.8-0.4,1-0.8
			c0-0.4,0-0.8-0.4-1.2c-4.4-4-5.7-5.9-6.1-6.7c1.4,0,6.3,1.2,22.2,9.5c0.4,0.2,0.6,0.2,0.8,0.2l53.7-7.3h0.6c0.6-0.2,1-0.8,1-1.4
			c-0.2-0.6-0.6-1-1.2-1h-0.2l-53.9,7.3c-21.4-10.9-24-10.3-25.2-8.7c-0.8,1.2-0.2,3.2,4.8,8.3c-22.4,3.2-22.2,5-22.2,6.5
			c0,1.6,0.2,4,39.4,5.4l49.9,3.2L529.7,836c-7.5-0.2-14.5,1-21.4,3.8c-4.6,1.8-9.1,4.4-13.1,7.7c-10.3,0.8-14.1,1.6-17.8,4.8
			c-7.5,6.5-8.5,17.6-6.5,34.1l-18.6,111.7c-0.2,0.6,0.2,1.2,0.8,1.4l1.6,0.4l-3.6,20.2c0,0.6,0.4,1.2,1,1.4h0.2c0.6,0,1-0.4,1.2-1
			l3.6-20l15.8,4l-4.4,18c-0.2,0.6,0.2,1.2,0.8,1.4h0.2c0.6,0,1-0.4,1.2-1l4.4-18l3,0.8h0.2c0.6,0,1-0.4,1.2-0.8l8.5-22.6
			c1.8,10.1,3.2,17.6,4.2,22.4c0.2,0.6,0.6,1,1.2,1h4.6v14.3c0,0.6,0.6,1.2,1.2,1.2c0.6,0,1.2-0.6,1.2-1.2v-14.3h16.8l-1.4,14.3
			c-0.2,0.8,0.4,1.4,1,1.4c0.2,0,0.2,0,0.2,0c0.6,0,1.2-0.4,1.2-1l1.4-14.5h2.6c0.6,0,1.2-0.6,1.2-1.2c0.2-15.1,0-30.3-0.6-45.2
			c-1.2-29.7-3.6-44-6.7-56.5c-1-3.2-1.8-6.7-2.8-9.9l15.6-0.2c0.2,1.8,0.6,3.6,1.6,5c2.2,3.4,10.7,4.7,29.5,5.3l-27.9,120.2
			c-1.6,6.7-0.6,12.9,2.4,16.8c1.8,2.4,4.5,3.6,7.5,3.6h153.5c5,0,8.9-1.6,11.3-4.4c0.4-0.4,0.6-0.8,0.8-1.2c2-3.6,1.8-8.3-0.8-13.3
			l-13.3-25l0.2,0.2c0.2,0.2,0.6,0.2,0.8,0.2c0.4,0,0.8-0.2,1-0.4c3.8-4.4,7.5-9.1,11.3-13.5c3.2-3.6,6.3-7.3,9.5-10.9l-0.4,26.7
			c0,0.2,0.2,0.6,0.4,0.8c0.2,0.2,0.4,0.4,0.8,0.4h5.1v18.2c0,0.6,0.6,1.2,1.2,1.2c0.4,0,0.8-0.4,1-0.6c0-0.2,0.2-0.4,0.2-0.6v-18.2
			h12.5v14.7c0,0.4,0.2,0.8,0.4,1l13.9,11.1c0.2,0.2,0.6,0.2,0.8,0.2c0.4,0,0.8,0,1-0.4c0.4-0.4,0.4-1.2-0.2-1.6l-0.2-0.2
			l-13.3-10.5v-14.3h4.6c0.6,0,1.2-0.6,1.2-1.2l3.8-63.2c3-3.2,6.1-6.5,8.7-9.3c8.7-9.3,15.5-16.8,21-23.2
			c6.7-7.9,11.3-14.7,14.1-21.6c1.6-4.2,2.6-8.5,3.2-13.1C796.9,868.1,796.9,864.9,795.9,859.2z M814.5,557.1
			c-1.4-0.8-3.6-1-11.9,7.9c-1.6,1.6-3.4,3.6-5.4,6.1c-1.4-2.2-2.6-3.6-3.8-4.2c-0.8-0.6-1.6-0.6-2.2-0.4c-0.6,0.2-1.2,0.6-1.6,2.2
			c-0.4,2.4,0,7.7,2.6,19l-4.8,39.8c0,0.4,0.2,0.8,0.6,1c0.2,0.2,0.4,0.2,0.4,0.4c0,0,0,0,0.2,0c0.6,0,1.2-0.4,1.2-1l3.6-30.1
			l0.6-4.8v-0.2l0.6-5c0-0.2,0-0.2,0-0.4c-0.4-2.2-0.8-4.2-1.2-5.9c-1.8-9.1-1.6-11.7-1.2-12.5c0.2,0,0.6,0.4,1.2,1
			c0.6,0.8,1.6,1.8,2.8,3.8c0.2,0.4,0.6,0.6,1,0.6s0.8-0.2,1-0.4c3.4-4,6.1-6.9,8.3-9.1c5.3-5.4,6.9-5.7,6.9-5.7
			c0.2,0.4,0.4,1.4-1,5.7c-1.4,4.2-4.2,11.5-10.3,24c0,0.2-0.2,0.4-0.2,0.4l-1.2,38.4c0,0.6,0.6,1,1,1.2h0.2c0.6,0,1.2-0.6,1.2-1.2
			l1.2-38c5.9-12.5,9.1-20.2,10.5-24.8c0.4-1.6,0.8-2.8,1-3.8C815.7,558.5,815.1,557.7,814.5,557.1z M771.2,533.7
			c-2.2,0.4-5-2.8-5.9-7.1c-0.8-4.2,0.6-8.3,3-8.7c0,0,0.2,0,0.4,0c2.2,0,4.8,3,5.4,7.1C775.1,529.2,773.7,533.3,771.2,533.7z
			 M763,527c0,0.2,0.2,0.6,0.2,0.8L749,528c1.8-4.2,2.8-9.3,2.8-14.5c1.2,0.4,2.6,0.4,3.8,0.6c3.4,0.2,6.9,0,10.3-0.8
			c0.6,0.6,1,1.4,1.6,2.2C764,516.3,762,521.4,763,527z M776.5,531.7c0-0.2-0.2-0.2-0.2-0.4c0.6-1.8,0.6-4.2,0.2-6.7
			c-0.8-4.2-3-7.7-5.9-8.7l-0.4-0.6c-1-1.4-2-2.8-3-3.8c0,0,0,0,0-0.2c-0.2-0.4-0.8-0.6-1.2-0.4c-3.4,0.8-6.9,1-10.3,0.8
			c-1.6-0.2-3.4-0.4-5-0.8c-0.4-0.2-0.8,0-1,0.2c-0.2,0.2-0.4,0.6-0.4,1c0.2,6.3-0.8,11.9-3.2,16.8c-2.8,5.7-3.8,5.7-4,5.7
			c-0.2-0.2-1-1.2-1.6-4c0-0.4-0.2-0.6-0.6-0.8c-3-1.8-6.9-1.2-9.1,1c-2.6,2.6-2.6,7.3,0,10.3c-0.2,2.6-0.8,5.3-1.6,7.7
			c-1,3-2.6,5.9-4.6,8.1c-0.4,0.4-0.8,1-1.4,1.4c-0.4,0.4-0.4,0.8-0.4,1.2c0,0.2,0.2,0.4,0.4,0.6c0.2,0.2,0.6,0.4,0.8,0.4
			c0.2,0,0.2,0,0.4-0.2c0.2,0,0.2-0.2,0.4-0.2c2.8-3.2,5-6.7,6.5-10.5c1-2.8,1.6-5.9,1.8-8.9c0-0.4-0.2-0.8-0.4-1
			c-2-2-2-5.5-0.2-7.3c1.4-1.4,3.6-1.6,5.7-0.8c0.6,3.2,1.8,5,3.4,5.3c2.4,0.4,4.4-2.6,6.3-6.3l16.2-0.2c1.4,3.4,4,5.9,6.9,5.9h1
			c1-0.2,1.8-0.6,2.6-1.4c1.2,11.1-1.6,21-6.9,23.2c-1.6,0.8-3,0.6-4.7,0.4c-2-0.2-4.4-0.4-6.9,1.2c-1.8,1.2-3,3-4,5.5
			c-0.8,2-1.2,4.4-1.4,7.3c0,0.6,0.6,1.2,1.2,1.2c0.2,0,0.6-0.2,0.8-0.4c0.2-0.2,0.4-0.6,0.4-0.8c0.2-3,0.8-5.5,1.6-7.3
			c0.6-1.6,1.6-2.6,2.8-3.4c1.8-1.2,3.4-1,5.2-0.8c1.8,0.2,3.8,0.4,6.1-0.6C776.1,556.7,778.3,543,776.5,531.7z M979.9,383.4
			c-7.3,0-14.5-1-21.6-2.6c-0.4,0-1,0.2-1.2,0.4c-0.4,0.4-0.4,0.8-0.4,1.2l12.9,55.7L919.3,364l-5.3-7.7
			c-17.6-17.6-27.3-40.8-27.3-65.6c0-51.3,41.6-92.9,92.9-92.9s92.9,41.6,92.9,92.9S1031,383.6,979.9,383.4z M912.4,369.7
			c-8.1,7.7-18.8,12.1-29.7,11.9h-77.6c-0.4,0-0.8,0.2-1,0.6l-30.1,45.8l-6.9,10.5l9.1-49.9l1-5.5c0.2-0.4,0-0.8-0.2-1
			c-0.4-0.2-0.6-0.4-1-0.4h-18.8c12.7-24.2,20-52.1,20-81.4c0-58.8-29.1-110.9-73.5-143V84.1c0-8.9,2.6-17.2,7.5-24
			c7.7-11.5,20.8-19,35.5-19h135.7c14.7,0,27.9,7.7,35.6,19c3.4,5.1,5.9,11.1,6.9,17.4c0.4,2.2,0.6,4.4,0.6,6.7v128.2
			c-24.8,17.2-41.2,45.8-41.2,78.4c0,25.4,10.1,49.5,27.9,67.3l4.7,6.9C915.5,366.7,913.8,368.3,912.4,369.7z M601.4,474.5
			c-11.5,0-22.8-1.2-34.1-3.4c-0.6-0.2-1.2,0.2-1.4,0.8c-0.2,0.4,0,0.6,0,0.8l13.1,76.9l-68.7-100.6c-0.2-0.2-0.4-0.4-0.6-0.6
			c-4-2.6-8.1-5.2-11.9-8.3c-2.8-2-5.7-4.2-8.3-6.5c5.4-5.5,8.7-12.9,8.7-21.2V240.9c0-4.7-1-9.1-3-12.9
			c-4.8-9.7-14.7-16.4-26.3-16.4h-17c31.3-52.3,88.3-84.8,149.3-84.8c95.7,0,173.7,77.9,173.7,173.7
			C774.9,396.4,696.9,474.3,601.4,474.5z M467.7,440.2h-142c-0.4,0-0.8,0.2-1,0.6l-30.9,53.5l-7.1,12.1v-65c0-0.6-0.6-1.2-1.2-1.2
			h-38.8c-5.4,0-10.7-1.8-14.5-5c-5.5-4.2-9.1-11.1-9.1-18.6v-50.9c64.8-4.6,116.1-58.8,116.1-124.8c0-9.3-1-18.4-3-27.1h132.5
			c8.7,0,16.6,4.2,21.6,10.9c3.4,4.4,5.3,10.1,5.3,16v171.7C495.5,427.7,483,440.2,467.7,440.2z M214,363.6
			c-15.1,0-30.3-2.8-44.6-8.3c-0.6-0.2-1.2,0-1.4,0.6v0.2l-57.4,68.3l30.3-83.8c0.2-0.6,0-1-0.4-1.4c-31.3-23.4-49.3-59.2-49.3-98.3
			c0-67.7,55.1-122.8,122.8-122.8s122.8,55.1,122.8,122.8C336.8,308.5,281.7,363.6,214,363.6z M979.7,195.4
			c-19,0-36.8,5.7-51.7,15.3V84.1c0-8.9-2.6-17-6.9-24c-8.1-12.7-22.4-21.4-38.6-21.4H746.8c-16.2,0-30.5,8.7-38.6,21.4
			c-4.4,7.1-6.9,15.2-6.9,24v71.7c-28.5-19.8-63-31.5-100.4-31.5c-62.4,0-120.6,33.5-152.1,87.2H335.6
			c-13.1-54.9-62.6-95.7-121.6-95.7C144.9,115.8,88.8,172,88.8,241c0,39.6,18,75.9,49.5,99.8l-32.5,89.3c-0.2,0.4,0,1.2,0.6,1.4
			c0.2,0.2,0.4,0.2,0.6,0.2c0.4,0,0.8-0.2,1-0.4l61.6-73.3c14.1,5.2,29.1,8.1,44.4,8.1c2.2,0,4.4,0,6.7-0.2v50.7
			c0,9.9,5.7,18.6,13.9,23c3.6,2,7.7,3,12.1,3h37.6v68.3c0,0.6,0.2,1,0.8,1.2c0.2,0,0.2,0,0.4,0c0.4,0,0.8-0.2,1-0.6l7.3-12.5
			l32.5-56.1h141.2c7.7,0,14.7-2.8,20-7.5c2.8,2.2,5.7,4.4,8.7,6.7c3.8,2.8,7.7,5.7,11.7,8.1L580,555.5c0.2,0.4,0.6,0.6,1,0.6
			c0,0,0.2,0,0.4,0c0.6-0.2,0.8-0.8,0.8-1.4l-13.9-81c10.7,2,21.8,3,32.7,3c66.9,0,125-37.4,154.9-92.3h18.6l-0.8,4.2l-10.1,55.5
			c0,0.6,0.2,1.2,0.8,1.4c0,0,0.2,0,0.4,0c0.4,0,0.8-0.2,1-0.6l7.1-10.9l32.9-49.9h76.7c11.9,0,23.2-4.6,31.7-12.9
			c1.4-1.4,2.8-2.8,4-4.4l53.1,78.2c0.2,0.4,0.6,0.6,1,0.6c0,0,0.2-0.2,0.4-0.2c0.4-0.2,0.8-0.8,0.6-1.4l-13.9-60.2
			c6.7,1.4,13.3,2.2,20.2,2.2c52.5,0,95.3-42.8,95.3-95.3C1075,238.2,1032.2,195.4,979.7,195.4z M387.3,1010.3
			c-8.7,2-17.8,2.8-26.9,2.2l-10.9-113.1c12.5-2.8,20-7.3,26.3-13.7c0.6-0.6,1.2-1.2,1.8-1.8l33.3,117.9
			C403.6,1005.6,395.8,1008.5,387.3,1010.3z M349.7,990.1l-7.3-72.1l5.9-8.7l6.7,69.1L349.7,990.1z M350.5,1018.8
			c0.4,5.2-1.2,10.5-4.8,14.5c-3.4,4-8.7,6.3-13.9,6.3h-61.8c1.8-1,3.4-2.2,4.8-3.8c3.6-4,5.5-9.3,5.1-14.7l-6.7-87l15.6-29.1
			c2,0,3.8-0.2,5.9-0.2c18.6-0.6,32.7-1.4,43.8-3l1.6,16l-39.6,59c-0.4,0.4-0.4,1,0,1.4c4,5,8.5,9.5,13.3,13.5l-9.7,12.1
			c0,0-0.2,0.2-0.2,0.4c-0.2,0.4,0,0.8,0.4,1.2c0.2,0.2,0.6,0.2,0.8,0.2c0.4,0,0.8-0.2,1-0.4l9.7-12.1c1.8,1.4,3.6,2.8,5.4,4
			c1.8,1.2,3.4,2.2,5.3,3.2l-8.7,11.9c-0.2,0.4-0.2,0.6-0.2,1l2.6,15.5c0,0,0,0.2,0.2,0.2c0.2,0.4,0.6,0.8,1,0.8h0.2
			c0.4-0.2,0.6-0.4,0.8-0.6c0.2-0.2,0.2-0.6,0.2-0.8l-2.6-15.1l8.5-11.7c4.8,2.6,9.7,4.8,14.9,6.5c0.2,0,0.2,0,0.4,0
			c0.6,0,1-0.4,1.2-0.8l3.2-7.5L350.5,1018.8z M232.8,1039.6c-3.4,0-6.7-1.8-8.5-4.8c-1.8-3-1.8-6.9-0.2-9.9l46.7-87l6.5,83.2
			c0.4,4.8-1.2,9.5-4.4,12.9c-3.2,3.4-7.7,5.4-12.5,5.4L232.8,1039.6z M209.1,1039.4l-43.4-0.2h-4c-3.6,0-7.1-2-8.9-5
			c-2-3-2-6.9-0.4-10.1c9.5-18,17.4-33.5,24.2-46.6c0.8-1.6,1.6-3,2.4-4.4c1.8-3.6,3.6-7.1,5.4-10.3c12.7-24.6,20.4-39.4,24.9-48.3
			c3.4-6.7,5-10.1,5.9-11.7c9.1,1.8,20.6,2.4,35.6,2.4c5.4,0,11.5,0,18-0.2l2.2,28.1l-48.5,90.5c-2.2,4-2,8.5,0.2,12.3
			c0.8,1.4,2,2.6,3.2,3.6H209.1z M285.9,904.7l-13.1,24.6l-1.8-24.2C275.6,904.8,280.6,904.8,285.9,904.7z M347.9,994.7l-4.6,10.3
			c-7.3-2.6-14.3-6.1-20.4-10.3c-7.5-4.8-13.9-10.9-19.6-17.8l37.4-55.7L347.9,994.7z M347.5,899.8l0.8,6.1c-0.2,0-0.4,0.2-0.6,0.4
			l-5.3,7.9L341,901C343.3,900.6,345.5,900.2,347.5,899.8z M388.5,865.9c1.8,0.8,3.4,2,4.8,3.4c0.8,0.8,4,4.2,4.8,9.5
			c0.6,3.6-0.2,6.9-3.2,14.1c-2.2,5.7-4.8,11.3-7.5,16.8l-7.9-28.3C384.1,876,386.9,870.7,388.5,865.9z M301.8,669.6l-0.2,5.9
			c-10.7-4.2-12.1-3.4-12.9-2.2c-0.6,1.2,0.4,2.2,1.6,3.4c1.2,1.4,3.4,3.4,4.8,6.9c0.4,1.2,0.6,2.2,0.8,3h-10.1l-2.6-6.7v-19.6
			c2.6,0.8,5.5,1.4,8.3,1.4h1c3.2,0,6.3-0.4,9.3-1.4V669.6z M295,659.1c-1,0.2-2,0.2-3.2,0.2c-0.6-0.2-1-0.2-1.6-0.2H295z
			 M413.5,1002l-24.2-88.3c3.2-6.5,6.1-12.9,8.7-19.4c3-7.7,4-11.1,3.2-15.5c-1-5.9-4.7-9.9-5.7-10.9c-1.6-1.6-3.4-3-5.7-4
			c1-3.8,1.4-7.5,1.4-10.3c0-9.7-4-20.2-12.1-30.5c-12.1-15.3-31.3-28.3-57.4-38.6c1.8-2.4,3.4-5.1,4.7-7.7c5-11.7,2-23-1.2-34.9
			v-0.4c-3.4-13.1-7.3-27.7-11.9-45.4c1-3.4,2-9.9-1-17c-2-4.6-5-7.9-7.5-9.7v-10.5c0-0.2,0-0.2,0-0.4c0-0.2-0.2-0.2-0.2-0.4
			c-0.2-0.2-0.2-0.2-0.2-0.2l-0.2-0.2h-0.4c-3.4-0.6-7.1-0.8-10.5-0.8c-2.2,0-4.2,0-6.5,0.2c4-4.2,5.9-11.1,6.9-17.6
			c0.2-1.8,0.4-3.4,0.6-5c0.6-4.4,0.6-9.1,0.2-13.5c0-0.6-0.2-1.2-0.2-1.8c-0.2-1.4-0.4-2.8-0.8-4c-0.2-0.8-0.8-1.2-1.4-1
			c-0.8,0.2-1.2,0.8-1,1.4c0.2,1.2,0.6,2.6,0.8,3.8c0.2,0.8,0.2,1.8,0.4,2.6c0.4,4,0.2,8.1-0.2,12.1c0,0.8-0.2,1.8-0.4,2.6
			c-0.4,3.4-1.2,7.3-2.2,10.7c-1.4,4.4-3.6,8.3-7.1,10.1c-0.4,0.2-1,0.6-1.6,0.8c-1.2,0.4-2.2,1-3.4,1.8c-0.6,0.4-0.8,1-0.4,1.6
			c0.2,0.4,0.6,0.6,1,0.6c0.2,0,0.4,0,0.6-0.2c1-0.6,2-1.2,3-1.6v19.6c0,0.2,0,0.2,0,0.4l3,7.7c0.2,0.4,0.6,0.6,1,0.8h11.5
			c0,0.8,0.4,1.8,0.8,3.2c1.2,3.4,3.4,6.7,6.3,9.5l0.2,28.9c0,0.6,0.6,1.2,1.2,1.2s1.2-0.6,1.2-1.2l-0.2-29.3c0-0.2-0.2-0.6-0.4-0.8
			c-2.8-2.6-4.8-5.7-6.1-8.9c-0.6-1.6-0.8-2.8-1-4c-0.2-1.4-0.4-2.8-1.2-4.8c-1.6-3.8-4-6.3-5.5-7.7l-0.2-0.2
			c1.6,0.4,4.6,1.2,10.7,3.6c0.4,0,0.8,0,1.2-0.2c0.4-0.2,0.6-0.6,0.6-1v-5c1.8,1.6,3.8,4.2,5.3,7.5c2.8,6.5,1.6,12.5,0.8,15.6v0.6
			c4.6,18,8.5,32.5,12.1,45.8v0.4c3,11.3,6.1,22.2,1.2,33.3c-1.2,2.6-2.8,5.2-4.8,7.7c-2.6-1-5.5-2-8.5-3
			c-16.6-5.7-35.3-10.5-56.8-14.3c-0.6,0-1-0.2-1.6-0.2c-12.5-2.2-26.1-4-40.2-5.6c-1-0.2-2-0.2-3-0.4c-5.7-0.6-11.1-1-16.8-1.6
			c-9.5-0.8-19.2-1.2-28.5-1.6c-0.4,0-0.8,0.2-1,0.4c-0.4,0.4-0.4,0.6-0.4,1c0.8,12.9,2.2,26.1,4,39c0.2,0.6,0.8,1,1.4,1
			c0.6-0.2,1-0.8,1-1.4c-1.6-12.3-3-24.8-3.8-37.4c14.5,0.6,29.3,1.4,44,3.2c0.8,0,1.8,0.2,2.6,0.2c38.8,4.2,71.5,11.1,98,20.2
			c0,0,0,0.2,0.2,0.2l9.1,3.2c0.2,0,0.2,0,0.4,0c26.3,10.3,45.4,23,57.4,38.4c7.7,9.9,11.7,19.8,11.5,29.1
			c-0.2,7.5-2.6,18.8-14.1,30.7c-3,3-6.1,5.6-10.1,7.7c-4,2.2-9.1,4-15.8,5.5h-0.2c-2.6,0.6-5.5,1.2-8.7,1.6
			c-10.7,1.6-25.2,2.6-44.8,3.2c-43.2,1.4-69.3,1.8-85.4-3c-3-1-5.7-2-7.9-3.4c-0.6-0.4-1.2-0.2-1.6,0.4c-0.4,0.6-0.2,1.2,0.4,1.6
			c2.6,1.4,5.7,2.6,9.1,3.6c1.2,0.4,2.4,0.6,3.6,1c-0.6,1.4-1.8,3.6-3.6,7.1c-4.7,9.1-13.3,25.8-25.3,48.7c-2.4,4.6-5,9.5-7.7,14.7
			c-0.2,0.2-0.2,0.6-0.4,0.8c-7.5,14.5-16.2,31.1-25.6,49.5c-2,4-2,8.7,0.4,12.5c2.4,3.8,6.5,6.1,10.9,6.1h169.5
			c6.1,0,11.7-2.6,15.8-7.1c4-4.5,6.1-10.3,5.5-16.4l-2.4-23.4l5.3-11.7l3,30.3c0.2,0.4,0.6,1,1.2,1c2.4,0.2,4.8,0.2,7.3,0.2
			c2.2,0,4.4,0,6.7-0.2l-1.2,6.5c0,0.6,0.4,1.2,1,1.4h0.2c0.6,0,1-0.4,1.2-1l1.2-7.3c3.6-0.2,7.5-0.8,11.1-1.6l0.8,4.2
			c0,0.4,0.2,0.6,0.4,0.8l14.8,12.3c0.2,0.2,0.6,0.2,0.8,0.2c0.4,0,0.8-0.2,1-0.4c0.4-0.4,0.4-1.2-0.2-1.6l-14.3-11.9l-0.8-3.8
			c8.3-2,16.2-4.8,23.6-8.9C413.5,1003.2,413.7,1002.6,413.5,1002z M599.4,682.7c0-0.4-0.2-0.6-0.4-0.8c0.2-0.2,0.4-0.6,0.4-0.8
			v-8.3c0-0.4-0.2-0.8-0.6-1c-0.2,0-0.4-0.2-0.6-0.2c-0.6,0-1.2,0.6-1.2,1.2v7.9c0,0.4,0.2,0.6,0.4,0.8c-0.2,0.2-0.2,0.4-0.4,0.6
			c0-0.2-0.2-0.6-0.4-0.8c-0.6-0.4-1.2-0.4-1.6,0.2l-7.7,9.1c-0.2,0.4-0.4,0.8-0.2,1.2l2.4,6.3c-1.4,3.2-10.1,23.8-13.5,43
			c-1,6.1-2,18.2-2.8,35.7c0.2,0.8,0.6,1.4,1.2,1.4s1.2-0.4,1.2-1.2c0.8-17.6,1.8-29.5,2.8-35.3c3.6-20.6,13.5-42.6,13.5-42.8
			c0.2-0.2,0.2-0.6,0-1l-2.4-6.1l7.3-8.5c0.2-0.2,0.2-0.2,0.2-0.4l1,12.5l-3.2,4.6c-6.1,7.9-3.6,57.2-2.2,78c0,0.6,0.6,1.2,1.2,1.2
			c0.2,0,0.2,0,0.4,0c0.4-0.2,0.8-0.6,0.8-1.2c-2-33.1-2.8-70.5,1.8-76.3l3.4-5c0.2-0.2,0.2-0.6,0.2-0.8L599.4,682.7z M622.2,653.4
			c0,0-0.2-0.2-0.2-0.4c-1.2-1.4-2.4-2.6-3-4c-0.2-0.4-0.4-0.8-0.6-1.2c-0.8-1.8-1.2-3.8-1.4-5.7c0.6-0.8,1-1.6,1.4-2.6
			c1-2.2,1.4-4.6,1-6.7c-0.2-1-0.6-1.8-1-2.6c-0.4-0.6-0.8-1-1.4-1.4c-2-1.4-5-0.8-6.5-0.2c-1.8-1-3.4-2.2-4.8-3.8
			c-3.4-3.8-4.6-8.1-4.8-11.1c0-0.4-0.2-0.8-0.6-1c-0.4-0.2-0.8-0.2-1.2,0c-4.4,2.2-9.1,3.6-13.9,4.7c-2.6,0.6-5.1,0.8-7.3,1H577
			c-0.4,0-0.6,0.2-0.8,0.6c-0.2,0.2-0.2,0.4-0.4,0.6c0,0.8-0.2,2.8-0.4,5.4c-0.4,5-0.6,12.3-0.6,18.8c0,5.9,0.2,10.7,1.2,12.5
			c0.2,0.4,0.6,0.6,1,0.6c0.2,0,0.4,0,0.6,0c0.2-0.2,0.4-0.2,0.4-0.4c0.2-0.4,0.2-0.8,0.2-1.2c-0.8-1.4-1-5.9-1-11.7
			c0-5.4,0.4-12.1,0.6-17.8c0-1.6,0.2-3.4,0.4-4.8c2.4-0.2,4.9-0.6,7.5-1c4.4-0.8,8.7-2.2,12.9-4.2c0.6,3.2,2,7.3,5.3,10.9
			c0.8,1,1.8,1.8,3,2.6c1,0.8,2,1.4,3,2h0.2c0.4,0.2,0.6,0,0.8,0c0.8-0.4,3.2-1.4,4.6-0.4c0.6,0.4,1.2,1.4,1.4,2.4
			c0.4,2.4-0.4,5.3-2.2,7.7c-0.2,0.2-0.2,0.4-0.2,0.8c0.2,3,0.8,5.6,2.2,8.3c0.4,0.8,1,1.6,1.6,2.4c0.6,0.8,1.2,1.6,2,2.4V667
			c0,0.2,0,0.2,0,0.4c0.2,0.4,0.6,0.8,1.2,0.8c0.6,0,1.2-0.6,1.2-1.2v-12.7C622.6,653.8,622.4,653.6,622.2,653.4z M151.2,673.8
			c-0.2,0-0.2,0-0.4,0c-3.2,1.2-6.3,2.2-9.5,3.4c-2.2,0.8-4.4,1.6-6.7,2.2c-0.4,0.2-0.8,0.2-1.2,0.4c-1.8,0.6-3.8,1.2-5.7,1.8h-0.2
			c-4.4,1.4-8.9,2.8-13.3,4.2c-22,6.1-26.7,5.4-30.9,4c-4.2-1.4-8.7-4.2-22.4-26.7C37.7,626,37.5,614,39.9,608c0.8-2,1.8-3.8,2.6-5
			c1-1.2,2-1.8,3.2-2c3.2-0.6,6.7,2.8,8.1,4.2c10.9,10.9,29.7,54.3,35.4,67.5c0.2,0.6,0.6,0.8,1.2,0.8l37.2-3.6l22.2-2.2
			c0.2,0,0.2,0,0.4,0c17-6.9,23-8.5,25-8.7c-0.4,0.4-1.2,1.2-2.8,2.4c-0.4,0.2-0.6,0.8-0.4,1.2c0.2,0.4,0.6,0.8,1,0.8
			c18.4,3.2,22.2,5.2,23,6.1C194.6,670.4,187.3,672.6,151.2,673.8z M135.4,690.8c-2.6,0-5.1-2-7.9-6.1l-0.2-0.2h0.2
			c7.3-2.2,14.3-4.6,21.4-7.3C144.3,686.1,139.9,691,135.4,690.8z M175.6,660.9c2-1.8,2.6-3,2-4c-0.6-1.2-1.4-2.8-19.6,4.2
			c2.8-7.7,5.6-16.8,8.3-27.1c6.5-4.7,9.3-12.5,7.3-19.4c-1.4-5-5.3-8.1-7.7-9.5c8.7-13.7,7.7-14.5,6.7-15.4c-0.4-0.2-1-0.4-1.8-0.2
			c-2.8,0.6-10.3,6.7-13.7,15.3c-3.2,7.9-2.2,15.6-0.8,20.8l-14.7,27.9v-13.5c-0.4-19-2.4-23.6-3.2-25.6c-1.8-4.6-4.6-8.9-8.3-12.7
			c-0.6-0.4-1.4-0.4-1.8,0c-0.2,0.4-0.4,0.8-0.2,1.2v0.2c0,0.2,0.2,0.2,0.2,0.4c3.4,3.6,6.1,7.7,7.9,11.9c0.8,1.6,2.6,6.3,3,24.6
			c0.2,6.3,0,12.5-0.2,18.8c-0.2,0.6,0.2,1,0.8,1.2c0.6,0.2,1.2-0.2,1.4-0.6l17.6-33.1v-0.8c-1.4-4.9-2.4-12.3,0.6-19.8
			c2.8-7.1,8.7-12.1,11.1-13.5c-0.6,1.6-2.2,5-7.3,12.7c-0.2,0.4-0.2,0.6-0.2,1c0,0.4,0.2,0.6,0.6,0.8c1.8,0.8,6.1,3.4,7.7,8.7
			c2,6.1-0.8,12.7-6.7,17c-0.2,0-0.4,0.4-0.4,0.6c-2.8,11.3-5.9,21.2-8.9,29.3c-1.8,0.8-3.6,1.6-5.9,2.4l-21.8,2.2l-5.3,0.6
			L91,670.8c-2.2-5-6.1-13.9-10.5-23.8c-7.9-17-18-36.5-24.9-43.4c-1.2-1.2-4-4.2-7.5-5.1c-0.6-0.2-1-0.2-1.6-0.2
			c-0.4,0-0.8,0-1.2,0c-4.6,1-6.9,6.9-7.7,8.7c-2,5.7-2.2,14.7,9.9,37.6c3,5.7,6.7,12.1,11.3,19.8c1,1.4,1.8,2.8,2.6,4.2
			c12.1,19.2,16.6,22,21,23.4c1.8,0.6,3.8,1,6.5,1c4.8,0,12.1-1.4,25.7-5c2.6-0.8,5-1.4,7.5-2.2c1-0.2,2-0.6,3-0.8
			c0.8,1.2,1.6,2.4,2.4,3.4c2.6,3,5.3,4.6,8.1,4.6h0.2c5.4,0,10.9-5.4,16.4-17c45.8-1.4,46.1-4.6,46.1-7.1
			C198.2,667,196.6,664.7,175.6,660.9z M110,565c3.2-6.1,4.2-13.7,4.7-19.6c0.2-2.2,0.2-4.2,0-5.9c0-2.4-0.2-3.8-0.2-4.2
			c0-0.6-0.6-1.2-1.4-1c-4,0.4-8.1,0.2-11.9-0.6c-8.1-1.6-13.7-5.7-17.2-8.7c-0.2-0.2-0.8-0.4-1.2-0.2c-0.4,0-0.8,0.4-0.8,0.8
			c-1,2.6-2.2,5.3-4,7.7c-1.4,2-3.2,4-5.3,5.7c-3.4,0.6-5.9,3.6-5.4,6.9c0.2,2.4,2,4.4,4.4,5.2c1.8,4.7,2.8,9.3,3.2,13.9
			c0.2,3.4,0.2,6.9-0.2,10.3c-0.4,3.4-1,6.7-2.2,9.9l-15.8,7.1c-0.6,0.2-0.8,0.8-0.6,1.4v0.2c0.6,0.2,1.2,0.6,1.8,0.2l0.4-0.2
			l15.8-7.1c0.4-0.2,0.6-0.4,0.6-0.8c1.2-3.6,2-7.3,2.4-10.9c0.4-3.4,0.4-6.7,0.2-10.1c-0.4-5.3-1.6-10.7-3.6-16
			c-0.2-0.4-0.4-0.6-0.8-0.8c-1.8-0.4-3.2-1.8-3.2-3.2c-0.2-2,1.4-3.8,3.8-4.2c0.2,0,0.4-0.2,0.6-0.2c2.2-1.8,4.2-4,5.9-6.3
			c1.4-2,2.6-4.2,3.6-6.5c3.6,3,9.3,6.7,17,8.1c3.6,0.8,7.5,1,11.5,0.8c0.4,4.2,0.8,18.8-4.8,28.3c-2,3.2-4.6,6.1-8.3,7.5
			c-0.4,0.2-0.8,0.6-0.8,1.2v14.5c0,0.4,0.2,1,0.8,1.2l10.3,4.2l0.6,0.2l1.2,0.4c0.2,0,0.4,0,0.4,0c0.4,0,1-0.2,1.2-0.8
			c0.2-0.6,0-1.4-0.6-1.6l-11.3-4.6v-12.9C104.7,572.4,107.8,569,110,565z M120.7,720.5c0-0.4-0.2-0.6-0.4-0.8
			c-0.2-0.2-0.4-0.4-0.8-0.4s-0.8,0.2-1,0.6c0,0.2-0.2,0.4-0.2,0.6l2.6,129v0.6l1.4,0.2l1,0.2v-0.2L120.7,720.5z M103.5,1021.8
			l-1.6,8.9l-10.1-3.8l-0.2-6.7L90.2,983c3.6,1.2,7.3,2,10.9,2.8c3,0.6,5.9,1,8.9,1.2L103.5,1021.8z M61.5,946.1
			c-4.9-5.9-9.1-12.1-12.3-19L72.8,880c1.2,1.8,2.6,3.6,3.8,5.3L72,956.4C68.2,953.1,64.5,949.5,61.5,946.1z M129,974.5
			c0-0.6,0-1,0-1.6c0-3.4-0.2-6.9-0.2-10.3c-0.2-0.6-0.6-1-1.2-1.2h-0.2c-0.6,0-1.2,0.6-1.2,1.2c0,3.4,0.2,6.9,0.2,10.3v1.6
			c0,3.2,0,6.5,0,9.7c-4.6,0.6-9.1,0.6-13.7,0.4c-3.8-0.2-7.5-0.6-11.1-1.4c-10.1-2-19.6-5.9-28.3-11.3l5.7-87.2
			c0-0.2,0-0.6-0.2-0.8c-14.8-19.2-33.1-50.9-37.8-93.5c-2.6-23.2-0.6-46.6,5.9-69.5v-0.2c0-0.6-0.4-1-0.8-1.2
			c-0.6-0.2-1.2,0.2-1.4,0.8c0,0,0,0,0,0.2c-6.5,23.2-8.5,46.9-5.9,70.5c4,37.8,18.8,67,32.5,86.8l-24.7,48.7c-0.2,0.2-0.2,0.6,0,1
			c1.2,2.4,2.4,4.8,3.8,7.1l-27.5,65.2c-0.2,0.4-0.2,0.8,0,1.2c0.2,0.2,0.4,0.4,0.6,0.4c0,0,0.2,0,0.4,0c0.6,0,0.8-0.2,1-0.6
			c0,0,0-0.2,0.2-0.2l26.7-63.4c2.2,3.6,4.6,7.1,7.5,10.3c2.6,3,5.4,5.9,8.3,8.5l-30.7,53.3l-0.2,0.4c-0.4,0.6-0.2,1.2,0.4,1.6
			c0.2,0.2,0.4,0.2,0.6,0.2s0.4,0,0.6-0.2c0.2-0.2,0.4-0.2,0.4-0.4l30.7-53.3c0.8,0.8,1.6,1.4,2.4,2L71,972.9c0,0.4,0.2,0.8,0.6,1
			c5.1,3.4,10.7,6.1,16.4,8.3l1.4,41.2l0.2,4.2c0,0.4,0.4,0.8,0.8,1l12.3,4.6c0.2,0,0.2,0,0.4,0c0.2,0,0.4,0,0.6-0.2
			c0.4-0.2,0.6-0.4,0.6-0.8l1.6-9.1l6.7-36.1c0.2,0,0.2,0,0.4,0c1.4,0.2,3,0.2,4.4,0.2c3.2,0,6.9-0.2,10.1-0.6c0.2,0,0.2,0,0.4,0
			c0.6,0,1-0.6,1-1.2C129,981.8,129,978.2,129,974.5z M114,845.9c-4.4-20.2-10.1-40.2-16.6-59.8v-32.7c0-0.6-0.6-1.4-1.2-1.4
			c-0.6,0-1.2,0.6-1.2,1.2v32.9c0,0.2,0,0.2,0,0.4c6.3,19.2,11.9,39,16.4,58.6c0,0.2,0,0.4,0.2,0.6c0,0.2,0.2,0.4,0.2,0.6
			c0.2,0.6,0.6,1,1.2,1h0.2c0.6-0.2,1-0.4,1-0.8C114,846.3,114,846.1,114,845.9"/>
	</g>
</g>
<path class="st2" d="M221.7,805.5c-0.4-0.4-1-0.6-1.8-0.8c-3.4-0.6-7.1-1.2-10.9-1.6c-19.4-1.8-43.8,0-61.8,15.8
	c-9.3,8.1-13.9,23.2-15.8,41.2c-2.2-3.8-4.8-6.9-7.9-8.9c-0.4-0.4-1-0.6-1.4-1c-0.4-0.2-0.8-0.6-1.4-0.8c-2-1.2-4.2-2.2-6.5-3
	c-0.2,0-0.2,0-0.4-0.2c-0.8-0.2-1.6-0.6-2.6-0.8c-5.2-1.4-10.5-1.8-15.5-1.4c-9.1,0.6-17.8,3.6-24.4,6.7c-2.2,1-2.2,3.8-0.6,5.1
	c0.4,0.4,1,0.6,1.6,0.6h0.2c8.9,0.8,19,5.7,23.8,22.2c5.9,19.8,24.2,55.1,37.6,79.4c2,3.8,4,7.3,5.9,10.5c0,0.4,0.2,0.8,0.2,1.2
	c0.2,1,0.8,1.8,1.8,2.2c0.2,0.2,0.2,0.6,0.4,0.8c0.2,0.4,0.6,0.8,0.8,1.4l0.2,0.2c1.2,2.2,4.4,1.8,5.3-0.4c0.2-0.4,0.2-0.6,0.2-1
	v-4.4c1.2-3,2.8-6.5,4.2-10.3v13.1c0,0.6,0,1,0.2,1.4c0.2,0.4,0.2,0.8,0.6,1.2c1.8,2.8,6.7,3,8.3-0.2c0.2-0.4,0.4-0.6,0.4-1
	c0-0.4,0.2-0.6,0.2-1v-3.4c0-3,0.6-6.5,1.6-10.3c0.6-1.8,1.2-3.8,2-5.9c7.5-19.6,23.8-44.6,31.5-56.3c4.2-6.7,8.3-10.3,11.3-12.3
	c0,0,0.2,0,0.2-0.2c2.6-1.8,2.6-5.9,0-7.5c-0.2-0.2-0.6-0.4-1-0.6c-5.1-2-12.9-2.8-24.8,1.6c0.2-0.6,0.4-1.4,0.6-2
	c3.6-11.7,6.3-22.2,7.5-30.5c2.2-14.9,9.5-23.2,17.8-28.3c3.4-2,7.1-3.4,10.7-4.4c2-0.6,3-2.2,3.2-3.8
	C223.1,807.1,222.7,806.1,221.7,805.5z M895.5,809.3c-0.4-0.4-1.2-0.8-2-0.8c-20.4-3.6-51.1-4.7-72.7,14.3c-0.4,0.2-0.6,0.6-1,0.8
	c-8.7,8.3-13.1,23-14.7,40.4c-2.2-3.8-4.8-6.9-7.9-8.9c-0.8-0.6-1.8-1.2-2.6-1.6c-1.2-0.6-2.4-1.4-3.6-1.8c-1.4-0.6-2.8-1.2-4-1.6
	c-5.7-1.8-11.5-2.2-17.2-1.8c-6.1,0.4-11.9,1.8-17.2,3.6c-0.8,0.2-1.6,0.6-2.4,0.8c-1.8,0.6-3.4,1.4-5.1,2c-2.2,1-2.2,3.6-0.8,4.8
	c0.4,0.4,1,0.8,1.8,0.8c0.2,0,0.6,0,0.8,0c1.2,0.2,2.4,0.4,3.6,0.6c0.8,0.2,1.6,0.4,2.4,0.8c6.9,2.4,13.5,8.1,17.2,20.8
	c1.6,5.9,4.4,12.9,7.9,20.8c0.4,1,0.8,1.8,1.2,2.8c8.1,18.2,19.4,39.6,28.5,55.7c2,3.8,4,7.3,5.9,10.5c0,0.4,0.2,0.8,0.2,1.2
	c0.2,1,0.8,1.8,1.8,2.2c0.2,0.2,0.2,0.6,0.4,0.8c0.2,0.6,0.6,1,0.8,1.6c0.6,1.2,2,1.6,3,1.4c0.8-0.2,1.6-0.8,2-1.6
	c0.2-0.4,0.2-0.8,0.2-1.2v-4.4c1.2-3,2.8-6.5,4.2-10.3v13.1c0,0.6,0,1,0.2,1.4c0.2,0.6,0.4,1,0.6,1.4c1.8,2.6,6.3,2.6,7.9-0.2
	c0.2-0.4,0.4-0.8,0.6-1.2c0-0.4,0.2-0.6,0.2-1v-3.4c0-3,0.6-6.5,1.6-10.3c0.2-0.6,0.4-1.2,0.6-1.8c6.5-20,24.9-47.9,32.9-60.4
	c4.2-6.7,8.3-10.3,11.3-12.3c3.2-2,2.8-6.9-0.8-8.3c-5.1-2-12.9-2.8-24.9,1.6c0.2-0.6,0.4-1.2,0.6-1.8c3.6-11.7,6.3-22.4,7.5-30.7
	c3-21,16.4-29.3,28.5-32.5c2-0.6,3.2-2.2,3.2-3.6C896.7,811.1,896.3,810.1,895.5,809.3z M1001.3,662.5c1.2-25.2,9.1-49.1-3.2-59
	c-4.9-4-11.3-4.4-20.2-12.9c-4.8-4.8-8.1-9.5-10.1-12.7c-0.4,0-0.6,0.2-0.8,0.2c-0.8,0.2-1.6,0.4-2.4,0.4c-3,0.4-6.7,0.6-10.9,0.4
	c-3.6-0.2-6.9-0.8-9.7-1.4c-0.8-0.2-1.6-0.4-2.4-0.6c-0.2,0-0.6-0.2-0.8-0.2c-0.6,3.4-1,7.1-1.4,10.5c-8.5-1.2-18-3-27.9-5.7
	c-15.5-4.2-29.1-9.3-40.4-14.5c-0.6,1.2-1,2.4-1.6,3.6c-0.2,0.4-0.4,1-0.6,1.4c-3.8,8.7-7.7,17.2-11.5,25.8
	c5.3,4.7,12.9,10.5,23.2,15.1c15.1,6.9,28.7,8.3,37.2,8.5c-1.8,3.2-4.7,9.5-4.7,17.8c0,16,11.3,25.9,13.3,27.5
	c3,12.1,5.4,26.9,5.9,43.8c0,0.2,0,0.4,0,0.6c3.2-2,6.5-4.2,9.7-6.5l1.4-9.9c0.2,0.4,0.4,0.8,0.8,1.2c1.8,2.8,4.4,6.1,8.3,8.5
	c2.6,2,5.9,3.4,9.1,4.2c0.4,0,0.8,0.2,1.2,0.2c-1,3.2-2.2,6.7-3.2,9.9c-9.3,4.8-18.6,9.5-27.9,14.3v0.6c0.4,0.2,0.8,0.2,1.4,0.4
	c1,0.4,2.2,0.6,3.2,1c0.8,0.2,1.6,0.4,2.4,0.6c10.1,2.6,24.2,4.6,40.6,2.8c11.3-1.2,21-3.8,28.5-6.7c0.8-0.2,1.6-0.6,2.2-0.8
	c0.8-0.4,1.8-0.6,2.6-1C1001.7,701.5,1000.3,678.7,1001.3,662.5"/>
<g>
	<defs>
		<rect id="SVGID_3_" x="9.1" y="487" width="1020.1" height="561.5"/>
	</defs>
	<clipPath id="SVGID_4_">
		<use xlink:href="#SVGID_3_"  style="overflow:visible;"/>
	</clipPath>
	<g class="st4">
		<path class="st1" d="M775.7,496.3c-1.6-3.4-7.7-1.8-23-5c-8.3-1.6-11.3-3.2-14.3-3.2c-0.8,0-1.8,0.2-2.8,0.4
			c-7.1,2-11.1,9.7-13.1,15.1c-1.8,0.6-7.5,2.4-11.1,7.9c-5.4,8.5-1.4,18.2-1.2,18.6c2.8,7.1,7.7,7.1,11.5,14.1
			c2.4,4.4,2.8,9.1,2.8,12.5c0,0.8,0,1.6-0.2,2.2c0.2-0.2,0.4-0.6,0.6-0.8c1.6-2,3.8-5,5.4-9.3c1.2-3.2,1.6-6.3,1.8-8.5
			c-2.6-2.6-2.6-6.7-0.2-9.1c1.8-1.8,5-2.2,7.7-0.8c0.2,1.2,1,4.6,2.6,5c2,0.4,4.4-4.4,5.2-6.3c1.6-3.4,3.6-9.1,3.4-17.4
			c1.6,0.4,3.2,0.6,5.3,0.8c4.2,0.4,7.9-0.2,10.7-0.8c0.2-0.2,0.4-0.4,0.6-0.4C776.9,501.8,776.3,497.9,775.7,496.3z M696.7,1041.4
			c0-0.2-0.2-0.2-0.2-0.4c-1.8-2.2-4.7-2-6.5-2.6c-2-0.6-4.4-2.8-6.1-9.9c-0.2,0.2-0.6,0.2-0.8,0.4c-0.2,0-0.2,0.2-0.4,0.2
			c-0.6,0.2-1,0.6-1.6,0.8c-0.2,0.2-0.6,0.2-0.8,0.4l-15.8-25.2l-3.2-5.3l-0.4-0.6c-0.4,0.2-1,0.4-1.4,0.6c-2.2,1-4.8,2.6-7.7,4.9
			c-3.6,3-6.3,6.1-7.9,8.5c6.5,6.7,12.3,12.1,16.6,16c4.2,3.8,7.5,6.5,10.1,8.5c0.8,0.6,1.4,1,2,1.4c1.6,1.2,2.8,1.8,4,2.4
			c1.4,0.6,2.6,1,3.8,1.4c1.8,0.6,3.4,0.8,5.1,1c2.2,0.2,4.4,0.2,6.3,0c2.2-0.2,4-0.6,5.7-1C697.3,1042.4,697.1,1042,696.7,1041.4z
			 M628,613c-0.8-1.4-3.4-5.6-8.3-8.1c-0.6-0.2-1-0.6-1.6-0.8c-5.7-2-9.5,0.8-17.2-0.2c-12.7-2-15.1-12.1-23.4-10.3
			c-4.9,1-9.9,5.2-10.7,10.9c-0.8,5.7,2.8,11.5,9.1,14.3c0.6,0.2,1.2,0.4,1.6,0.6c2.2-0.2,4.8-0.6,7.5-1c5.7-1.2,10.5-3,14.1-4.9
			c0.2,2.2,1.2,7.3,5.3,11.9c1.4,1.4,2.8,2.6,4,3.4l-1.8,0.2l-24.8,4c-0.4,0-0.8,0.4-1,0.8c-0.2-3.6-1.4-6.9-3-8.3
			c-0.6-0.6-1.4-0.8-2-0.8c-0.2,0-0.2,0-0.4,0c-2.8,0.4-4.8,4.4-4.8,9.5c0,4.6,1.8,8.3,4.2,9.3c0.4,0.2,0.6,0.2,1,0.2
			c0.6,0,1-0.2,1.4-0.4c2.2-1.2,3.8-4.6,3.8-8.7c0.2,0.6,0.6,0.8,1.2,0.8h0.2l27.7-4.4h0.4c0.6-0.2,1.2-0.8,1-1.4v-0.2
			c1.2-0.4,3.2-0.8,4.8,0.2c2.4,1.6,3,7.1-0.6,11.9c0,1.6,0.4,4.6,2,7.7c0.2,0.4,0.4,0.8,0.6,1c1,1.6,2.2,3,3,3.8
			c0.2-0.4,0.4-0.8,0.8-1.2C631.1,638.3,633.9,622.9,628,613z M610.9,645.1c-2-3-6.1-6.1-10.1-5.9c-6.1,0.2-6.1,6.9-16,13.3
			c-2.8,1.8-5.1,2.8-7.1,3.8c-0.4,0.2-0.6,0.4-1,0.6c-2,1-3.6,2.2-4.8,4.6c-0.4,0.6-2.6,5.1-0.8,9.1c2.2,5.4,9.5,6.5,10.9,6.7
			c5.9,0.8,11.1-1.6,14.9-4.2c0.6-0.4,1.2-0.8,1.8-1.2c2.4-2,4-3.8,4.6-4.5C604.6,666,615.7,653.8,610.9,645.1z M520.8,1032.7
			c-0.8-4.8-3-8.3-4.2-9.5h-17.2c-7.3,3.4-13.1,5.5-17.6,6.7c-6.7,1.8-11.9,2.6-16,7.3c-1.8,2-2.8,4-3.2,5.5h57
			C520.2,1041,521.4,1037.3,520.8,1032.7z M470.1,1028.5c-0.4-1-0.8-2-1.2-2.8l-17.8-2.4c-7.9,3.6-14.5,5.5-19.8,6.7
			c-0.6,0.2-1.2,0.4-1.8,0.4c-5.9,1.2-11.5,1.8-14.5,5.1c-0.4,0.4-0.8,1-1.2,1.6c-1.2,2-1.2,4.2-1.2,5.9H461c0,0,0-0.2,0.2-0.4
			c0.2-0.8,1-3.4,3-5.9c2.2-3,5.3-4.5,6.7-4.9C470.7,1030.7,470.5,1029.7,470.1,1028.5z M1027.8,1033.7c-1.2-6.1-3.6-10.7-5.5-13.7
			c-16.8,11.3-25.9,16-27.7,13.9c-0.6-0.8-0.4-2.2,0.8-4.6c-5.9,2.6-10.7,4-14.3,4.8c-4.2,1-8.3,1.4-9.7,4.4
			c-0.6,1.4-0.6,2.8-0.4,3.8h57.8C1028.6,1040,1028.4,1036.9,1027.8,1033.7z M958.5,507.4c-3.8-1.6-10.7-3.6-20.4-2l-22.8,5
			c0.4,4.6,1.2,9.5,2.6,14.5c0.2,0.8,0.4,1.4,0.8,2.2c0.6-4.2,1.8-7.5,2.6-9.7c1,2,3.8,6.3,9.3,9.1c9.3,4.6,18.6,0.2,19.8-0.2
			c2.8-0.6,5.9,0.2,7.7,2.4c2.4,2.8,2.4,7.3-0.2,10.7c-0.6,1-3.4,6.7-1.2,13.3c2,6.1,6.9,8.7,7.9,9.3c0.2,4.2,0.4,8.5,0.6,12.7
			c0.2,0,0.4,0.2,0.4,0.2h17C987.8,542.8,977.3,515.7,958.5,507.4z M911.2,1032.7c-1-5.4-3.6-9.5-4.8-11.3
			c-16.4,10.3-25.8,14.1-28.3,11.3c-0.6-0.8-0.8-1.8-0.6-3.4c-5.9,3-10.5,4.2-13.9,4.8c-3,0.6-6.5,1-8.1,3.4c-1,1.6-1,3.6-0.8,5
			c18.6,0.4,37.2,0.8,55.7,1.2C911,1041.6,912,1037.7,911.2,1032.7z M780.7,1037.7c-1.4-3-5.7-3.4-8.1-3.8
			c-4.6-0.8-11.1-2.2-19.6-5.9c-0.2,0-0.4-0.2-0.6-0.2c-0.2,0.8-0.6,1.6-0.8,2.2c-0.2,0.6-0.4,1.2-0.6,1.8l-26.5-9.9l-2.2-0.8h-0.2
			c-1.4,2-4,5.9-5.1,11.3c-0.8,4.4-0.2,8.3,0.2,10.5h63.4C781.1,1041.4,781.6,1039.6,780.7,1037.7z M835.3,978l-7.9,0.2h-10.5
			l-23.6,0.4l-8.5,0.2l8.5,58.6l1.6,11.1h43.4l12.5-70.7L835.3,978z M322.5,1029.1c-0.4-0.2-0.6-0.6-1-0.8c-0.4,0.2-0.8,0.6-1,0.6
			c-0.6,0.4-1.2,0.6-1.8,0.6c-7.1,0.4-12.9-19-14.3-24.2c-0.2-0.6-0.2-1-0.4-1.2c-2.2,0.4-5.7,1.2-9.3,3.4c-4.2,2.6-6.9,5.9-8.1,7.9
			c4,4.6,9.3,9.9,15.4,15.1c4,3.6,8.1,6.5,11.7,9.1c0.6,0.4,1,0.6,1.6,1c1,0.6,2,1,2.8,1.2c2.2,0.6,4.2,0.6,5.9,0
			c0.8-0.2,1.4-0.6,1.8-1.2c0.2-0.2,0.6-0.6,0.6-1C327.7,1036.9,326.5,1032.3,322.5,1029.1z M63.7,1037.5c-1.8-3.6-7.7-3.8-11.5-5.1
			c-4.4-1.6-10.1-6.5-13.9-21.2c-0.2-0.4-0.2-0.8-0.4-1.2l-1-0.8l-11.9-8.5l-1-0.8c-0.4,0.2-0.6,0.6-1,1c-4,4-8.3,8.1-12.3,11.9
			c-1.4,1.4-1.2,4,0.8,5c8.7,4.6,15.3,9.1,19.8,12.7c5.7,4.4,10.1,8.7,17.6,10.7c5.9,1.6,11.3,1.4,14.9,0.8
			C64.1,1041,64.5,1039.1,63.7,1037.5z M142.3,972.9c-0.2-0.2-0.4-0.6-0.4-0.8c-1-0.4-1.6-1.2-1.8-2.2c0-0.4-0.2-0.8-0.2-1.2
			c-1.8-3.2-3.8-6.7-5.9-10.5h-6.1c-0.2-0.2-0.2-0.4-0.4-0.8v15.6H142.3z M153,971.5v-13.1c-1.4,3.8-3,7.3-4.2,10.3v4.2h4.2
			C153,972.5,153,971.9,153,971.5z M175.8,973.7l-14.1,0.2l-8.3,0.2h-10.5l-14.1,0.2h-2.6l-15.2,0.2l1.4,9.9l0.4,2.4l6.7,46.4
			c-4-1.2-8.9-4.2-13.7-10.1c-0.4-0.4-0.6-0.8-1-1.2c-0.4,0-1-0.2-1.4-0.2c-4-0.6-7.9-1.2-11.9-1.8c-0.4,0-0.6,0-1-0.2
			c-0.4,0.8-0.8,2-1.2,3.4c-0.6,2-1,4.8-0.8,8.1c0.4,5.5,2.4,9.5,3.4,11.3h29.1l0.2,1.6h43.4l0.4-2.6l0.4-2.6l10.9-61.8l1-3.4H175.8
			z M153,971.5v-13.1c-1.4,3.8-3,7.3-4.2,10.3v4.2h4.2C153,972.5,153,971.9,153,971.5z M141.9,972.1c-1-0.4-1.6-1.2-1.8-2.2
			c0-0.4-0.2-0.8-0.2-1.2c-1.8-3.2-3.8-6.7-5.9-10.5h-6.1c-0.2-0.2-0.2-0.4-0.4-0.8v15.6h14.8C142.1,972.7,141.9,972.3,141.9,972.1z
			 M293.8,620.5c-0.6,0-1.2,0.4-1.6,1.4c-0.8,1.4-1.4,4-1.4,6.9h-7.3c1-3,1.8-5.9,2.8-9.1c1.8-0.2,3.6-0.4,5.7-0.6
			c0.8,0,1.6-0.2,2.4-0.2c1,0,2-0.2,2.8-0.2c-0.2-2-2.8-17.6-16.6-25c-2.4-1.4-10.1-5.1-19.8-3.4c-9.1,1.4-14.7,6.7-17,8.7
			c-11.3,10.7-12.3,25.7-14.3,36.6c-3.6,19.2-11.9,30.3-20.4,40.4c-9.9,11.9-20,22-22.4,42.4c-1,8.9-1,22.2,5.7,39.8
			c0.2,0.4,0.2,0.6,0.4,1l16.4,2l42.8,5.4h0.2c0.6-0.2,1.2-0.4,1.8-0.6c5.7-2,12.3-5.7,16.8-12.3c8.5-12.5,4-29.1,2.8-34.5
			c-2.2-9.7-3.4-23-1.2-41.2c0,0,0,0,0-0.2c1.6-12.9,4.6-28.3,10.3-46.6h8.1v0.2c0,2.2,0.4,4,0.8,5.5c0.6,1.6,1.2,2.6,2,2.8
			c1.6,0,3-4.2,3-9.5c0-4.4-1-8.1-2.2-9.1C294.2,620.5,294,620.5,293.8,620.5z M411.5,1031.3c-2.2-1-4.2-1-5.3-0.8
			c-1,0.6-2.6,1.4-4.6,1.8c-4,0.8-7.9,0-17.8-4.2c-3-1.2-6.9-2.8-11.1-4.8c-1.2,2.6-2.4,6.1-3.2,9.9c-0.8,3.6-1.2,6.9-1.2,9.7h43.4
			c-0.2-0.6-1-3.4,0.4-6.3c0.8-1.8,2-2.8,2.8-3.2C414.1,1032.7,413.1,1031.9,411.5,1031.3z M834.9,962h-10.7
			c-0.2-8.1-0.2-66,26.9-78.2c15.1-6.7,24.4-5.4,29.7-3.4c1.2,0.4,2,1.6,2.2,3c0,1.6-0.6,2.8-1.8,3.6c-4.2,2.8-8.5,7.3-12.3,13.3
			l-1.6,2.4C858.3,916.8,841.7,942.2,834.9,962z M881.5,878.4c-4.7-2-12.3-3.2-24,0.6c-2.2,0.8-4.8,1.6-7.5,2.8
			c-28.3,12.5-28.5,71.7-28.3,80.2h-2.4c-1.2-40.4-6.5-90.9-24.2-106.6c-0.6-0.6-1.2-1-1.8-1.4c-0.2,0-0.2-0.2-0.4-0.2
			c-0.6-0.4-1.2-0.8-1.6-1.2c-1.4-1-2.8-1.8-4.4-2.4c-11.3-5.4-23.6-5-34.5-2.4c-0.8,0.2-1.6,0.4-2.4,0.6c-4.6,1.2-9.1,2.8-12.9,4.6
			c-1.8,0.8-2.8,2.6-2.4,4.6c0.4,2,2,3.4,4,3.6c4.7,0.4,8.5,1.6,11.9,3.8c0.8,0.6,1.6,1.2,2.4,1.8c4.5,3.8,7.7,9.3,9.9,16.8
			c0.8,3.2,2.2,7.1,3.8,11.3c0.2,0.6,0.8,0.8,1.2,0.8c0.2,0,0.2,0,0.4,0c0.6-0.2,0.8-1,0.6-1.6c-1.6-4.2-2.8-7.9-3.8-11.1
			c-2.8-9.5-7.3-15.4-12.1-19c-0.8-0.6-1.6-1.2-2.4-1.6c-1.2-0.6-2.4-1.2-3.6-1.8c-0.8-0.4-1.6-0.6-2.6-0.8c-2-0.6-3.8-0.8-5.7-1
			c-1.2-0.2-1.6-0.8-1.8-1.6c-0.2-0.6,0-1.6,1-2c3.6-1.6,7.9-3.2,12.3-4.4c0.8-0.2,1.6-0.4,2.4-0.6c5.4-1.4,11.3-2,17.2-1.8
			c7.5,0.4,15.1,2.4,22,7.3c0.2,0,0.2,0.2,0.4,0.2c0.2,0,0.2,0.2,0.2,0.2c0.4,0.2,0.6,0.6,1,0.8c1,0.8,1.8,1.6,2.6,2.6
			c16.2,18.8,20.2,71.3,21.2,102.8h-15.2c-3-5.4-5.9-10.9-8.7-16.2c-4.8-9.1-9.1-17.8-12.9-25.5c-0.2-0.6-1-0.8-1.6-0.6
			c-0.6,0.2-0.8,1-0.6,1.6c4.4,8.9,9.5,19,15.1,29.7c1.8,3.6,3.8,7.3,5.9,10.9h-20.2V977h79.2v-14.7h-20.4c0.2-0.6,0.4-1.2,0.6-1.8
			c7.3-19.2,22.6-42.8,31.1-55.9l1.6-2.4c3.6-5.7,7.5-9.9,11.5-12.5c2-1.2,3-3.6,2.8-5.9C885.2,881.2,883.7,879.2,881.5,878.4z
			 M893.8,804.1c-22.8-4-54.7-4.6-77.6,15.4c-7.3,6.3-12.3,17-15.4,31.9c0,0.6,0.4,1.2,1,1.4c0.6,0.2,1.2-0.2,1.4-1
			c2.8-14.3,7.7-24.6,14.5-30.5c22-19.4,53.3-18.6,75.5-14.7c1.4,0.2,2.2,1,2.2,2.2c0,0.2,0,0.4,0,0.6c-0.2,0.8-0.8,1.6-2.4,2.2
			c-12.3,3.2-27.7,12.1-30.9,35.3c-1,6.7-2.8,15.1-5.9,25.2c-0.2,0.6,0.2,1.4,0.8,1.4c0.2,0,0.2,0,0.4,0c0.6,0,1-0.4,1.2-0.8
			c3-10.3,5-19,5.9-25.6c2.4-17.6,12.3-28.9,29.1-33.3c1.2-0.4,2.2-1,2.8-1.6c1-1,1.6-2.4,1.4-3.6
			C898.1,806.3,896.3,804.5,893.8,804.1z M161.3,958.2h-10.7c-0.2-8.3-0.2-66,26.7-78c15.1-6.7,24.4-5.4,29.7-3.4
			c1.2,0.4,2,1.6,2.2,3v0.2c0,0.2,0,0.4,0,0.4c0,1.2-0.8,2-1.6,2.8c-4.2,2.8-8.5,7.3-12.3,13.3l-1.6,2.4
			C184.7,912.7,168.1,938.4,161.3,958.2z M209.1,875.2c-0.4-0.4-0.8-0.6-1.2-0.8c-4.7-2-12.3-3.2-24,0.6c-2.2,0.8-4.8,1.6-7.5,2.8
			c-28.3,12.5-28.5,71.7-28.3,80.2h-2.4c-1-35.3-5.3-78.6-18.2-99.4c-2.4-3.8-5.3-7.1-8.3-9.1c-1.6-1-3.2-2-4.8-2.8
			c-0.2,0-0.2-0.2-0.4-0.2c-0.8-0.4-1.8-0.8-2.6-1.2c-16.8-7.1-35.1-2.2-48.5,3.8c-1.8,0.8-2.8,2.6-2.4,4.7c0.4,2,2,3.4,4,3.6
			c12.1,1,20.2,8.5,24.2,22.4c0.8,3.2,2.2,7.1,3.8,11.3c0.2,0.6,0.8,0.8,1.2,0.8c0.2,0,0.2,0,0.4,0c0.6-0.2,0.8-1,0.6-1.6
			c-1.6-4.2-2.8-7.9-3.8-11.1c-3.8-13.3-11.1-19.6-18.4-22.4c-0.6-0.2-1.2-0.4-1.8-0.6c-2.2-0.6-4.2-1-6.3-1.2
			c-1.2-0.2-1.6-0.8-1.8-1.6c-0.2-0.6,0-1.6,1-2c9.1-4,20.6-7.5,32.1-6.9c7.5,0.4,14.9,2.4,21.8,7.3c3.8,2.6,7.1,7.1,9.9,12.5
			c11.5,23,14.8,66.6,15.6,94.1h-15.2c-0.2-0.2-0.2-0.4-0.4-0.8c-8.3-15.1-15.5-28.9-21.2-40.8c-0.2-0.6-1-0.8-1.6-0.6
			c-0.6,0.2-0.8,1-0.6,1.6c5.9,11.9,12.9,25.6,21,40.6h-20.2v14.7h79.4v-14.7h-20.4c0.6-2,1.4-3.8,2.2-5.9
			c7.7-18.4,21.6-39.6,29.5-51.9l1.6-2.4c3.6-5.7,7.5-9.9,11.5-12.5c0.2,0,0.2-0.2,0.4-0.4c1.8-1.2,2.6-3.4,2.4-5.7
			C211.4,877.8,210.4,876.2,209.1,875.2z M219.8,800.3c-3.4-0.6-7.1-1.2-10.7-1.4c-21.4-2.2-47.5-0.2-66.9,16.8
			c-6.7,6.1-11.9,16-14.8,29.9c-0.2,0.6-0.2,1.2-0.4,2c0,0.4,0.2,0.8,0.4,1c0.2,0.2,0.4,0.4,0.6,0.4c0.6,0,1.2-0.4,1.4-1
			c2.8-14.3,7.7-24.6,14.5-30.5c18.8-16.4,44.2-18.4,65-16.2c3.6,0.4,7.1,0.8,10.5,1.4c1.4,0.2,2.2,1,2.2,2.2c0,0.2,0,0.4,0,0.6
			c-0.2,1-0.8,2-2.4,2.2c-3.2,0.8-6.9,2.2-10.3,4c-9.5,5.1-18.2,14.3-20.6,31.3c-1,6.5-2.8,15.1-5.9,25.2c-0.2,0.6,0.2,1.2,0.8,1.4
			c0.2,0,0.2,0,0.4,0c0.6,0,1-0.2,1.2-0.8c2.8-10.3,4.8-19,5.9-25.7c1.8-13.3,8.1-23,18.2-28.9c3.2-1.8,6.9-3.2,10.9-4.5
			c1.4-0.4,2.2-1,3-1.8c0.8-1,1.2-2.2,1.2-3.4C224.3,802.3,222.7,800.7,219.8,800.3"/>
	</g>
</g>
</svg>
